%TF.GenerationSoftware,KiCad,Pcbnew,9.0.6*%
%TF.CreationDate,2026-01-06T18:42:53+05:30*%
%TF.ProjectId,Servo Motor Tester,53657276-6f20-44d6-9f74-6f7220546573,rev?*%
%TF.SameCoordinates,Original*%
%TF.FileFunction,Drillmap*%
%TF.FilePolarity,Positive*%
%FSLAX45Y45*%
G04 Gerber Fmt 4.5, Leading zero omitted, Abs format (unit mm)*
G04 Created by KiCad (PCBNEW 9.0.6) date 2026-01-06 18:42:53*
%MOMM*%
%LPD*%
G01*
G04 APERTURE LIST*
%ADD10C,0.200000*%
%ADD11C,0.100000*%
%ADD12C,0.120000*%
G04 APERTURE END LIST*
D10*
X12260000Y-8028500D02*
X14621839Y-8028500D01*
X14621839Y-10911500D01*
X12260000Y-10911500D01*
X12260000Y-8028500D01*
D11*
X12927000Y-9837000D02*
X12957000Y-9867000D01*
X12957000Y-9837000D02*
X12927000Y-9867000D01*
X13276000Y-9838000D02*
X13306000Y-9868000D01*
X13306000Y-9838000D02*
X13276000Y-9868000D01*
X13457000Y-10215000D02*
X13487000Y-10245000D01*
X13487000Y-10215000D02*
X13457000Y-10245000D01*
X13646000Y-9773000D02*
X13676000Y-9803000D01*
X13676000Y-9773000D02*
X13646000Y-9803000D01*
X13648000Y-9427000D02*
X13678000Y-9457000D01*
X13678000Y-9427000D02*
X13648000Y-9457000D01*
X14227000Y-10079000D02*
X14257000Y-10109000D01*
X14257000Y-10079000D02*
X14227000Y-10109000D01*
X12769000Y-9437000D02*
G75*
G02*
X12689000Y-9437000I-40000J0D01*
G01*
X12689000Y-9437000D02*
G75*
G02*
X12769000Y-9437000I40000J0D01*
G01*
X12769000Y-10199000D02*
G75*
G02*
X12689000Y-10199000I-40000J0D01*
G01*
X12689000Y-10199000D02*
G75*
G02*
X12769000Y-10199000I40000J0D01*
G01*
X13103000Y-9484000D02*
G75*
G02*
X13023000Y-9484000I-40000J0D01*
G01*
X13023000Y-9484000D02*
G75*
G02*
X13103000Y-9484000I40000J0D01*
G01*
X13103000Y-9738000D02*
G75*
G02*
X13023000Y-9738000I-40000J0D01*
G01*
X13023000Y-9738000D02*
G75*
G02*
X13103000Y-9738000I40000J0D01*
G01*
X13103000Y-9992000D02*
G75*
G02*
X13023000Y-9992000I-40000J0D01*
G01*
X13023000Y-9992000D02*
G75*
G02*
X13103000Y-9992000I40000J0D01*
G01*
X13103000Y-10246000D02*
G75*
G02*
X13023000Y-10246000I-40000J0D01*
G01*
X13023000Y-10246000D02*
G75*
G02*
X13103000Y-10246000I40000J0D01*
G01*
X13865000Y-9484000D02*
G75*
G02*
X13785000Y-9484000I-40000J0D01*
G01*
X13785000Y-9484000D02*
G75*
G02*
X13865000Y-9484000I40000J0D01*
G01*
X13865000Y-9738000D02*
G75*
G02*
X13785000Y-9738000I-40000J0D01*
G01*
X13785000Y-9738000D02*
G75*
G02*
X13865000Y-9738000I40000J0D01*
G01*
X13865000Y-9992000D02*
G75*
G02*
X13785000Y-9992000I-40000J0D01*
G01*
X13785000Y-9992000D02*
G75*
G02*
X13865000Y-9992000I40000J0D01*
G01*
X13865000Y-10246000D02*
G75*
G02*
X13785000Y-10246000I-40000J0D01*
G01*
X13785000Y-10246000D02*
G75*
G02*
X13865000Y-10246000I40000J0D01*
G01*
X14128000Y-9743000D02*
G75*
G02*
X14048000Y-9743000I-40000J0D01*
G01*
X14048000Y-9743000D02*
G75*
G02*
X14128000Y-9743000I40000J0D01*
G01*
X14128000Y-10243000D02*
G75*
G02*
X14048000Y-10243000I-40000J0D01*
G01*
X14048000Y-10243000D02*
G75*
G02*
X14128000Y-10243000I40000J0D01*
G01*
X12707000Y-10452000D02*
X12707000Y-10542000D01*
X12662000Y-10497000D02*
X12752000Y-10497000D01*
X12707000Y-10706000D02*
X12707000Y-10796000D01*
X12662000Y-10751000D02*
X12752000Y-10751000D01*
X12445356Y-9792356D02*
X12445356Y-9721644D01*
X12374644Y-9721644D01*
X12374644Y-9792356D01*
X12445356Y-9792356D01*
X12445356Y-10046356D02*
X12445356Y-9975644D01*
X12374644Y-9975644D01*
X12374644Y-10046356D01*
X12445356Y-10046356D01*
X14497356Y-9785356D02*
X14497356Y-9714644D01*
X14426644Y-9714644D01*
X14426644Y-9785356D01*
X14497356Y-9785356D01*
X14497356Y-10039356D02*
X14497356Y-9968644D01*
X14426644Y-9968644D01*
X14426644Y-10039356D01*
X14497356Y-10039356D01*
X14497356Y-10293356D02*
X14497356Y-10222644D01*
X14426644Y-10222644D01*
X14426644Y-10293356D01*
X14497356Y-10293356D01*
D12*
X12900000Y-8515000D02*
X12960000Y-8455000D01*
X12900000Y-8395000D01*
X12840000Y-8455000D01*
X12900000Y-8515000D01*
X13400000Y-8515000D02*
X13460000Y-8455000D01*
X13400000Y-8395000D01*
X13340000Y-8455000D01*
X13400000Y-8515000D01*
X13900000Y-8515000D02*
X13960000Y-8455000D01*
X13900000Y-8395000D01*
X13840000Y-8455000D01*
X13900000Y-8515000D01*
D10*
X12510777Y-11232984D02*
X12510777Y-11032984D01*
X12510777Y-11032984D02*
X12558396Y-11032984D01*
X12558396Y-11032984D02*
X12586967Y-11042508D01*
X12586967Y-11042508D02*
X12606015Y-11061555D01*
X12606015Y-11061555D02*
X12615539Y-11080603D01*
X12615539Y-11080603D02*
X12625062Y-11118698D01*
X12625062Y-11118698D02*
X12625062Y-11147270D01*
X12625062Y-11147270D02*
X12615539Y-11185365D01*
X12615539Y-11185365D02*
X12606015Y-11204412D01*
X12606015Y-11204412D02*
X12586967Y-11223460D01*
X12586967Y-11223460D02*
X12558396Y-11232984D01*
X12558396Y-11232984D02*
X12510777Y-11232984D01*
X12710777Y-11232984D02*
X12710777Y-11099650D01*
X12710777Y-11137746D02*
X12720301Y-11118698D01*
X12720301Y-11118698D02*
X12729824Y-11109174D01*
X12729824Y-11109174D02*
X12748872Y-11099650D01*
X12748872Y-11099650D02*
X12767920Y-11099650D01*
X12834586Y-11232984D02*
X12834586Y-11099650D01*
X12834586Y-11032984D02*
X12825062Y-11042508D01*
X12825062Y-11042508D02*
X12834586Y-11052031D01*
X12834586Y-11052031D02*
X12844110Y-11042508D01*
X12844110Y-11042508D02*
X12834586Y-11032984D01*
X12834586Y-11032984D02*
X12834586Y-11052031D01*
X12958396Y-11232984D02*
X12939348Y-11223460D01*
X12939348Y-11223460D02*
X12929824Y-11204412D01*
X12929824Y-11204412D02*
X12929824Y-11032984D01*
X13063158Y-11232984D02*
X13044110Y-11223460D01*
X13044110Y-11223460D02*
X13034586Y-11204412D01*
X13034586Y-11204412D02*
X13034586Y-11032984D01*
X13291729Y-11232984D02*
X13291729Y-11032984D01*
X13291729Y-11032984D02*
X13358396Y-11175841D01*
X13358396Y-11175841D02*
X13425062Y-11032984D01*
X13425062Y-11032984D02*
X13425062Y-11232984D01*
X13606015Y-11232984D02*
X13606015Y-11128222D01*
X13606015Y-11128222D02*
X13596491Y-11109174D01*
X13596491Y-11109174D02*
X13577443Y-11099650D01*
X13577443Y-11099650D02*
X13539348Y-11099650D01*
X13539348Y-11099650D02*
X13520301Y-11109174D01*
X13606015Y-11223460D02*
X13586967Y-11232984D01*
X13586967Y-11232984D02*
X13539348Y-11232984D01*
X13539348Y-11232984D02*
X13520301Y-11223460D01*
X13520301Y-11223460D02*
X13510777Y-11204412D01*
X13510777Y-11204412D02*
X13510777Y-11185365D01*
X13510777Y-11185365D02*
X13520301Y-11166317D01*
X13520301Y-11166317D02*
X13539348Y-11156793D01*
X13539348Y-11156793D02*
X13586967Y-11156793D01*
X13586967Y-11156793D02*
X13606015Y-11147270D01*
X13701253Y-11099650D02*
X13701253Y-11299650D01*
X13701253Y-11109174D02*
X13720301Y-11099650D01*
X13720301Y-11099650D02*
X13758396Y-11099650D01*
X13758396Y-11099650D02*
X13777443Y-11109174D01*
X13777443Y-11109174D02*
X13786967Y-11118698D01*
X13786967Y-11118698D02*
X13796491Y-11137746D01*
X13796491Y-11137746D02*
X13796491Y-11194888D01*
X13796491Y-11194888D02*
X13786967Y-11213936D01*
X13786967Y-11213936D02*
X13777443Y-11223460D01*
X13777443Y-11223460D02*
X13758396Y-11232984D01*
X13758396Y-11232984D02*
X13720301Y-11232984D01*
X13720301Y-11232984D02*
X13701253Y-11223460D01*
X13882205Y-11213936D02*
X13891729Y-11223460D01*
X13891729Y-11223460D02*
X13882205Y-11232984D01*
X13882205Y-11232984D02*
X13872682Y-11223460D01*
X13872682Y-11223460D02*
X13882205Y-11213936D01*
X13882205Y-11213936D02*
X13882205Y-11232984D01*
X13882205Y-11109174D02*
X13891729Y-11118698D01*
X13891729Y-11118698D02*
X13882205Y-11128222D01*
X13882205Y-11128222D02*
X13872682Y-11118698D01*
X13872682Y-11118698D02*
X13882205Y-11109174D01*
X13882205Y-11109174D02*
X13882205Y-11128222D01*
D11*
X12220000Y-11546500D02*
X12250000Y-11576500D01*
X12250000Y-11546500D02*
X12220000Y-11576500D01*
D10*
X12548872Y-11452984D02*
X12567920Y-11452984D01*
X12567920Y-11452984D02*
X12586967Y-11462508D01*
X12586967Y-11462508D02*
X12596491Y-11472031D01*
X12596491Y-11472031D02*
X12606015Y-11491079D01*
X12606015Y-11491079D02*
X12615539Y-11529174D01*
X12615539Y-11529174D02*
X12615539Y-11576793D01*
X12615539Y-11576793D02*
X12606015Y-11614888D01*
X12606015Y-11614888D02*
X12596491Y-11633936D01*
X12596491Y-11633936D02*
X12586967Y-11643460D01*
X12586967Y-11643460D02*
X12567920Y-11652984D01*
X12567920Y-11652984D02*
X12548872Y-11652984D01*
X12548872Y-11652984D02*
X12529824Y-11643460D01*
X12529824Y-11643460D02*
X12520301Y-11633936D01*
X12520301Y-11633936D02*
X12510777Y-11614888D01*
X12510777Y-11614888D02*
X12501253Y-11576793D01*
X12501253Y-11576793D02*
X12501253Y-11529174D01*
X12501253Y-11529174D02*
X12510777Y-11491079D01*
X12510777Y-11491079D02*
X12520301Y-11472031D01*
X12520301Y-11472031D02*
X12529824Y-11462508D01*
X12529824Y-11462508D02*
X12548872Y-11452984D01*
X12701253Y-11633936D02*
X12710777Y-11643460D01*
X12710777Y-11643460D02*
X12701253Y-11652984D01*
X12701253Y-11652984D02*
X12691729Y-11643460D01*
X12691729Y-11643460D02*
X12701253Y-11633936D01*
X12701253Y-11633936D02*
X12701253Y-11652984D01*
X12777443Y-11452984D02*
X12901253Y-11452984D01*
X12901253Y-11452984D02*
X12834586Y-11529174D01*
X12834586Y-11529174D02*
X12863158Y-11529174D01*
X12863158Y-11529174D02*
X12882205Y-11538698D01*
X12882205Y-11538698D02*
X12891729Y-11548222D01*
X12891729Y-11548222D02*
X12901253Y-11567269D01*
X12901253Y-11567269D02*
X12901253Y-11614888D01*
X12901253Y-11614888D02*
X12891729Y-11633936D01*
X12891729Y-11633936D02*
X12882205Y-11643460D01*
X12882205Y-11643460D02*
X12863158Y-11652984D01*
X12863158Y-11652984D02*
X12806015Y-11652984D01*
X12806015Y-11652984D02*
X12786967Y-11643460D01*
X12786967Y-11643460D02*
X12777443Y-11633936D01*
X13025062Y-11452984D02*
X13044110Y-11452984D01*
X13044110Y-11452984D02*
X13063158Y-11462508D01*
X13063158Y-11462508D02*
X13072682Y-11472031D01*
X13072682Y-11472031D02*
X13082205Y-11491079D01*
X13082205Y-11491079D02*
X13091729Y-11529174D01*
X13091729Y-11529174D02*
X13091729Y-11576793D01*
X13091729Y-11576793D02*
X13082205Y-11614888D01*
X13082205Y-11614888D02*
X13072682Y-11633936D01*
X13072682Y-11633936D02*
X13063158Y-11643460D01*
X13063158Y-11643460D02*
X13044110Y-11652984D01*
X13044110Y-11652984D02*
X13025062Y-11652984D01*
X13025062Y-11652984D02*
X13006015Y-11643460D01*
X13006015Y-11643460D02*
X12996491Y-11633936D01*
X12996491Y-11633936D02*
X12986967Y-11614888D01*
X12986967Y-11614888D02*
X12977443Y-11576793D01*
X12977443Y-11576793D02*
X12977443Y-11529174D01*
X12977443Y-11529174D02*
X12986967Y-11491079D01*
X12986967Y-11491079D02*
X12996491Y-11472031D01*
X12996491Y-11472031D02*
X13006015Y-11462508D01*
X13006015Y-11462508D02*
X13025062Y-11452984D01*
X13215539Y-11452984D02*
X13234586Y-11452984D01*
X13234586Y-11452984D02*
X13253634Y-11462508D01*
X13253634Y-11462508D02*
X13263158Y-11472031D01*
X13263158Y-11472031D02*
X13272682Y-11491079D01*
X13272682Y-11491079D02*
X13282205Y-11529174D01*
X13282205Y-11529174D02*
X13282205Y-11576793D01*
X13282205Y-11576793D02*
X13272682Y-11614888D01*
X13272682Y-11614888D02*
X13263158Y-11633936D01*
X13263158Y-11633936D02*
X13253634Y-11643460D01*
X13253634Y-11643460D02*
X13234586Y-11652984D01*
X13234586Y-11652984D02*
X13215539Y-11652984D01*
X13215539Y-11652984D02*
X13196491Y-11643460D01*
X13196491Y-11643460D02*
X13186967Y-11633936D01*
X13186967Y-11633936D02*
X13177443Y-11614888D01*
X13177443Y-11614888D02*
X13167920Y-11576793D01*
X13167920Y-11576793D02*
X13167920Y-11529174D01*
X13167920Y-11529174D02*
X13177443Y-11491079D01*
X13177443Y-11491079D02*
X13186967Y-11472031D01*
X13186967Y-11472031D02*
X13196491Y-11462508D01*
X13196491Y-11462508D02*
X13215539Y-11452984D01*
X13367920Y-11652984D02*
X13367920Y-11519650D01*
X13367920Y-11538698D02*
X13377443Y-11529174D01*
X13377443Y-11529174D02*
X13396491Y-11519650D01*
X13396491Y-11519650D02*
X13425063Y-11519650D01*
X13425063Y-11519650D02*
X13444110Y-11529174D01*
X13444110Y-11529174D02*
X13453634Y-11548222D01*
X13453634Y-11548222D02*
X13453634Y-11652984D01*
X13453634Y-11548222D02*
X13463158Y-11529174D01*
X13463158Y-11529174D02*
X13482205Y-11519650D01*
X13482205Y-11519650D02*
X13510777Y-11519650D01*
X13510777Y-11519650D02*
X13529824Y-11529174D01*
X13529824Y-11529174D02*
X13539348Y-11548222D01*
X13539348Y-11548222D02*
X13539348Y-11652984D01*
X13634586Y-11652984D02*
X13634586Y-11519650D01*
X13634586Y-11538698D02*
X13644110Y-11529174D01*
X13644110Y-11529174D02*
X13663158Y-11519650D01*
X13663158Y-11519650D02*
X13691729Y-11519650D01*
X13691729Y-11519650D02*
X13710777Y-11529174D01*
X13710777Y-11529174D02*
X13720301Y-11548222D01*
X13720301Y-11548222D02*
X13720301Y-11652984D01*
X13720301Y-11548222D02*
X13729824Y-11529174D01*
X13729824Y-11529174D02*
X13748872Y-11519650D01*
X13748872Y-11519650D02*
X13777443Y-11519650D01*
X13777443Y-11519650D02*
X13796491Y-11529174D01*
X13796491Y-11529174D02*
X13806015Y-11548222D01*
X13806015Y-11548222D02*
X13806015Y-11652984D01*
X14196491Y-11443460D02*
X14025063Y-11700603D01*
X14453634Y-11452984D02*
X14472682Y-11452984D01*
X14472682Y-11452984D02*
X14491729Y-11462508D01*
X14491729Y-11462508D02*
X14501253Y-11472031D01*
X14501253Y-11472031D02*
X14510777Y-11491079D01*
X14510777Y-11491079D02*
X14520301Y-11529174D01*
X14520301Y-11529174D02*
X14520301Y-11576793D01*
X14520301Y-11576793D02*
X14510777Y-11614888D01*
X14510777Y-11614888D02*
X14501253Y-11633936D01*
X14501253Y-11633936D02*
X14491729Y-11643460D01*
X14491729Y-11643460D02*
X14472682Y-11652984D01*
X14472682Y-11652984D02*
X14453634Y-11652984D01*
X14453634Y-11652984D02*
X14434586Y-11643460D01*
X14434586Y-11643460D02*
X14425063Y-11633936D01*
X14425063Y-11633936D02*
X14415539Y-11614888D01*
X14415539Y-11614888D02*
X14406015Y-11576793D01*
X14406015Y-11576793D02*
X14406015Y-11529174D01*
X14406015Y-11529174D02*
X14415539Y-11491079D01*
X14415539Y-11491079D02*
X14425063Y-11472031D01*
X14425063Y-11472031D02*
X14434586Y-11462508D01*
X14434586Y-11462508D02*
X14453634Y-11452984D01*
X14606015Y-11633936D02*
X14615539Y-11643460D01*
X14615539Y-11643460D02*
X14606015Y-11652984D01*
X14606015Y-11652984D02*
X14596491Y-11643460D01*
X14596491Y-11643460D02*
X14606015Y-11633936D01*
X14606015Y-11633936D02*
X14606015Y-11652984D01*
X14739348Y-11452984D02*
X14758396Y-11452984D01*
X14758396Y-11452984D02*
X14777444Y-11462508D01*
X14777444Y-11462508D02*
X14786967Y-11472031D01*
X14786967Y-11472031D02*
X14796491Y-11491079D01*
X14796491Y-11491079D02*
X14806015Y-11529174D01*
X14806015Y-11529174D02*
X14806015Y-11576793D01*
X14806015Y-11576793D02*
X14796491Y-11614888D01*
X14796491Y-11614888D02*
X14786967Y-11633936D01*
X14786967Y-11633936D02*
X14777444Y-11643460D01*
X14777444Y-11643460D02*
X14758396Y-11652984D01*
X14758396Y-11652984D02*
X14739348Y-11652984D01*
X14739348Y-11652984D02*
X14720301Y-11643460D01*
X14720301Y-11643460D02*
X14710777Y-11633936D01*
X14710777Y-11633936D02*
X14701253Y-11614888D01*
X14701253Y-11614888D02*
X14691729Y-11576793D01*
X14691729Y-11576793D02*
X14691729Y-11529174D01*
X14691729Y-11529174D02*
X14701253Y-11491079D01*
X14701253Y-11491079D02*
X14710777Y-11472031D01*
X14710777Y-11472031D02*
X14720301Y-11462508D01*
X14720301Y-11462508D02*
X14739348Y-11452984D01*
X14996491Y-11652984D02*
X14882206Y-11652984D01*
X14939348Y-11652984D02*
X14939348Y-11452984D01*
X14939348Y-11452984D02*
X14920301Y-11481555D01*
X14920301Y-11481555D02*
X14901253Y-11500603D01*
X14901253Y-11500603D02*
X14882206Y-11510127D01*
X15186967Y-11652984D02*
X15072682Y-11652984D01*
X15129825Y-11652984D02*
X15129825Y-11452984D01*
X15129825Y-11452984D02*
X15110777Y-11481555D01*
X15110777Y-11481555D02*
X15091729Y-11500603D01*
X15091729Y-11500603D02*
X15072682Y-11510127D01*
X15301253Y-11538698D02*
X15282206Y-11529174D01*
X15282206Y-11529174D02*
X15272682Y-11519650D01*
X15272682Y-11519650D02*
X15263158Y-11500603D01*
X15263158Y-11500603D02*
X15263158Y-11491079D01*
X15263158Y-11491079D02*
X15272682Y-11472031D01*
X15272682Y-11472031D02*
X15282206Y-11462508D01*
X15282206Y-11462508D02*
X15301253Y-11452984D01*
X15301253Y-11452984D02*
X15339348Y-11452984D01*
X15339348Y-11452984D02*
X15358396Y-11462508D01*
X15358396Y-11462508D02*
X15367920Y-11472031D01*
X15367920Y-11472031D02*
X15377444Y-11491079D01*
X15377444Y-11491079D02*
X15377444Y-11500603D01*
X15377444Y-11500603D02*
X15367920Y-11519650D01*
X15367920Y-11519650D02*
X15358396Y-11529174D01*
X15358396Y-11529174D02*
X15339348Y-11538698D01*
X15339348Y-11538698D02*
X15301253Y-11538698D01*
X15301253Y-11538698D02*
X15282206Y-11548222D01*
X15282206Y-11548222D02*
X15272682Y-11557746D01*
X15272682Y-11557746D02*
X15263158Y-11576793D01*
X15263158Y-11576793D02*
X15263158Y-11614888D01*
X15263158Y-11614888D02*
X15272682Y-11633936D01*
X15272682Y-11633936D02*
X15282206Y-11643460D01*
X15282206Y-11643460D02*
X15301253Y-11652984D01*
X15301253Y-11652984D02*
X15339348Y-11652984D01*
X15339348Y-11652984D02*
X15358396Y-11643460D01*
X15358396Y-11643460D02*
X15367920Y-11633936D01*
X15367920Y-11633936D02*
X15377444Y-11614888D01*
X15377444Y-11614888D02*
X15377444Y-11576793D01*
X15377444Y-11576793D02*
X15367920Y-11557746D01*
X15367920Y-11557746D02*
X15358396Y-11548222D01*
X15358396Y-11548222D02*
X15339348Y-11538698D01*
X15453634Y-11452984D02*
X15453634Y-11491079D01*
X15529825Y-11452984D02*
X15529825Y-11491079D01*
X15825063Y-11729174D02*
X15815539Y-11719650D01*
X15815539Y-11719650D02*
X15796491Y-11691079D01*
X15796491Y-11691079D02*
X15786968Y-11672031D01*
X15786968Y-11672031D02*
X15777444Y-11643460D01*
X15777444Y-11643460D02*
X15767920Y-11595841D01*
X15767920Y-11595841D02*
X15767920Y-11557746D01*
X15767920Y-11557746D02*
X15777444Y-11510127D01*
X15777444Y-11510127D02*
X15786968Y-11481555D01*
X15786968Y-11481555D02*
X15796491Y-11462508D01*
X15796491Y-11462508D02*
X15815539Y-11433936D01*
X15815539Y-11433936D02*
X15825063Y-11424412D01*
X15986968Y-11452984D02*
X15948872Y-11452984D01*
X15948872Y-11452984D02*
X15929825Y-11462508D01*
X15929825Y-11462508D02*
X15920301Y-11472031D01*
X15920301Y-11472031D02*
X15901253Y-11500603D01*
X15901253Y-11500603D02*
X15891729Y-11538698D01*
X15891729Y-11538698D02*
X15891729Y-11614888D01*
X15891729Y-11614888D02*
X15901253Y-11633936D01*
X15901253Y-11633936D02*
X15910777Y-11643460D01*
X15910777Y-11643460D02*
X15929825Y-11652984D01*
X15929825Y-11652984D02*
X15967920Y-11652984D01*
X15967920Y-11652984D02*
X15986968Y-11643460D01*
X15986968Y-11643460D02*
X15996491Y-11633936D01*
X15996491Y-11633936D02*
X16006015Y-11614888D01*
X16006015Y-11614888D02*
X16006015Y-11567269D01*
X16006015Y-11567269D02*
X15996491Y-11548222D01*
X15996491Y-11548222D02*
X15986968Y-11538698D01*
X15986968Y-11538698D02*
X15967920Y-11529174D01*
X15967920Y-11529174D02*
X15929825Y-11529174D01*
X15929825Y-11529174D02*
X15910777Y-11538698D01*
X15910777Y-11538698D02*
X15901253Y-11548222D01*
X15901253Y-11548222D02*
X15891729Y-11567269D01*
X16244110Y-11652984D02*
X16244110Y-11452984D01*
X16329825Y-11652984D02*
X16329825Y-11548222D01*
X16329825Y-11548222D02*
X16320301Y-11529174D01*
X16320301Y-11529174D02*
X16301253Y-11519650D01*
X16301253Y-11519650D02*
X16272682Y-11519650D01*
X16272682Y-11519650D02*
X16253634Y-11529174D01*
X16253634Y-11529174D02*
X16244110Y-11538698D01*
X16453634Y-11652984D02*
X16434587Y-11643460D01*
X16434587Y-11643460D02*
X16425063Y-11633936D01*
X16425063Y-11633936D02*
X16415539Y-11614888D01*
X16415539Y-11614888D02*
X16415539Y-11557746D01*
X16415539Y-11557746D02*
X16425063Y-11538698D01*
X16425063Y-11538698D02*
X16434587Y-11529174D01*
X16434587Y-11529174D02*
X16453634Y-11519650D01*
X16453634Y-11519650D02*
X16482206Y-11519650D01*
X16482206Y-11519650D02*
X16501253Y-11529174D01*
X16501253Y-11529174D02*
X16510777Y-11538698D01*
X16510777Y-11538698D02*
X16520301Y-11557746D01*
X16520301Y-11557746D02*
X16520301Y-11614888D01*
X16520301Y-11614888D02*
X16510777Y-11633936D01*
X16510777Y-11633936D02*
X16501253Y-11643460D01*
X16501253Y-11643460D02*
X16482206Y-11652984D01*
X16482206Y-11652984D02*
X16453634Y-11652984D01*
X16634587Y-11652984D02*
X16615539Y-11643460D01*
X16615539Y-11643460D02*
X16606015Y-11624412D01*
X16606015Y-11624412D02*
X16606015Y-11452984D01*
X16786968Y-11643460D02*
X16767920Y-11652984D01*
X16767920Y-11652984D02*
X16729825Y-11652984D01*
X16729825Y-11652984D02*
X16710777Y-11643460D01*
X16710777Y-11643460D02*
X16701253Y-11624412D01*
X16701253Y-11624412D02*
X16701253Y-11548222D01*
X16701253Y-11548222D02*
X16710777Y-11529174D01*
X16710777Y-11529174D02*
X16729825Y-11519650D01*
X16729825Y-11519650D02*
X16767920Y-11519650D01*
X16767920Y-11519650D02*
X16786968Y-11529174D01*
X16786968Y-11529174D02*
X16796492Y-11548222D01*
X16796492Y-11548222D02*
X16796492Y-11567269D01*
X16796492Y-11567269D02*
X16701253Y-11586317D01*
X16872682Y-11643460D02*
X16891730Y-11652984D01*
X16891730Y-11652984D02*
X16929825Y-11652984D01*
X16929825Y-11652984D02*
X16948873Y-11643460D01*
X16948873Y-11643460D02*
X16958396Y-11624412D01*
X16958396Y-11624412D02*
X16958396Y-11614888D01*
X16958396Y-11614888D02*
X16948873Y-11595841D01*
X16948873Y-11595841D02*
X16929825Y-11586317D01*
X16929825Y-11586317D02*
X16901253Y-11586317D01*
X16901253Y-11586317D02*
X16882206Y-11576793D01*
X16882206Y-11576793D02*
X16872682Y-11557746D01*
X16872682Y-11557746D02*
X16872682Y-11548222D01*
X16872682Y-11548222D02*
X16882206Y-11529174D01*
X16882206Y-11529174D02*
X16901253Y-11519650D01*
X16901253Y-11519650D02*
X16929825Y-11519650D01*
X16929825Y-11519650D02*
X16948873Y-11529174D01*
X17025063Y-11729174D02*
X17034587Y-11719650D01*
X17034587Y-11719650D02*
X17053634Y-11691079D01*
X17053634Y-11691079D02*
X17063158Y-11672031D01*
X17063158Y-11672031D02*
X17072682Y-11643460D01*
X17072682Y-11643460D02*
X17082206Y-11595841D01*
X17082206Y-11595841D02*
X17082206Y-11557746D01*
X17082206Y-11557746D02*
X17072682Y-11510127D01*
X17072682Y-11510127D02*
X17063158Y-11481555D01*
X17063158Y-11481555D02*
X17053634Y-11462508D01*
X17053634Y-11462508D02*
X17034587Y-11433936D01*
X17034587Y-11433936D02*
X17025063Y-11424412D01*
D11*
X12250000Y-11825500D02*
G75*
G02*
X12170000Y-11825500I-40000J0D01*
G01*
X12170000Y-11825500D02*
G75*
G02*
X12250000Y-11825500I40000J0D01*
G01*
D10*
X12548872Y-11716984D02*
X12567920Y-11716984D01*
X12567920Y-11716984D02*
X12586967Y-11726508D01*
X12586967Y-11726508D02*
X12596491Y-11736031D01*
X12596491Y-11736031D02*
X12606015Y-11755079D01*
X12606015Y-11755079D02*
X12615539Y-11793174D01*
X12615539Y-11793174D02*
X12615539Y-11840793D01*
X12615539Y-11840793D02*
X12606015Y-11878888D01*
X12606015Y-11878888D02*
X12596491Y-11897936D01*
X12596491Y-11897936D02*
X12586967Y-11907460D01*
X12586967Y-11907460D02*
X12567920Y-11916984D01*
X12567920Y-11916984D02*
X12548872Y-11916984D01*
X12548872Y-11916984D02*
X12529824Y-11907460D01*
X12529824Y-11907460D02*
X12520301Y-11897936D01*
X12520301Y-11897936D02*
X12510777Y-11878888D01*
X12510777Y-11878888D02*
X12501253Y-11840793D01*
X12501253Y-11840793D02*
X12501253Y-11793174D01*
X12501253Y-11793174D02*
X12510777Y-11755079D01*
X12510777Y-11755079D02*
X12520301Y-11736031D01*
X12520301Y-11736031D02*
X12529824Y-11726508D01*
X12529824Y-11726508D02*
X12548872Y-11716984D01*
X12701253Y-11897936D02*
X12710777Y-11907460D01*
X12710777Y-11907460D02*
X12701253Y-11916984D01*
X12701253Y-11916984D02*
X12691729Y-11907460D01*
X12691729Y-11907460D02*
X12701253Y-11897936D01*
X12701253Y-11897936D02*
X12701253Y-11916984D01*
X12825062Y-11802698D02*
X12806015Y-11793174D01*
X12806015Y-11793174D02*
X12796491Y-11783650D01*
X12796491Y-11783650D02*
X12786967Y-11764603D01*
X12786967Y-11764603D02*
X12786967Y-11755079D01*
X12786967Y-11755079D02*
X12796491Y-11736031D01*
X12796491Y-11736031D02*
X12806015Y-11726508D01*
X12806015Y-11726508D02*
X12825062Y-11716984D01*
X12825062Y-11716984D02*
X12863158Y-11716984D01*
X12863158Y-11716984D02*
X12882205Y-11726508D01*
X12882205Y-11726508D02*
X12891729Y-11736031D01*
X12891729Y-11736031D02*
X12901253Y-11755079D01*
X12901253Y-11755079D02*
X12901253Y-11764603D01*
X12901253Y-11764603D02*
X12891729Y-11783650D01*
X12891729Y-11783650D02*
X12882205Y-11793174D01*
X12882205Y-11793174D02*
X12863158Y-11802698D01*
X12863158Y-11802698D02*
X12825062Y-11802698D01*
X12825062Y-11802698D02*
X12806015Y-11812222D01*
X12806015Y-11812222D02*
X12796491Y-11821746D01*
X12796491Y-11821746D02*
X12786967Y-11840793D01*
X12786967Y-11840793D02*
X12786967Y-11878888D01*
X12786967Y-11878888D02*
X12796491Y-11897936D01*
X12796491Y-11897936D02*
X12806015Y-11907460D01*
X12806015Y-11907460D02*
X12825062Y-11916984D01*
X12825062Y-11916984D02*
X12863158Y-11916984D01*
X12863158Y-11916984D02*
X12882205Y-11907460D01*
X12882205Y-11907460D02*
X12891729Y-11897936D01*
X12891729Y-11897936D02*
X12901253Y-11878888D01*
X12901253Y-11878888D02*
X12901253Y-11840793D01*
X12901253Y-11840793D02*
X12891729Y-11821746D01*
X12891729Y-11821746D02*
X12882205Y-11812222D01*
X12882205Y-11812222D02*
X12863158Y-11802698D01*
X13025062Y-11716984D02*
X13044110Y-11716984D01*
X13044110Y-11716984D02*
X13063158Y-11726508D01*
X13063158Y-11726508D02*
X13072682Y-11736031D01*
X13072682Y-11736031D02*
X13082205Y-11755079D01*
X13082205Y-11755079D02*
X13091729Y-11793174D01*
X13091729Y-11793174D02*
X13091729Y-11840793D01*
X13091729Y-11840793D02*
X13082205Y-11878888D01*
X13082205Y-11878888D02*
X13072682Y-11897936D01*
X13072682Y-11897936D02*
X13063158Y-11907460D01*
X13063158Y-11907460D02*
X13044110Y-11916984D01*
X13044110Y-11916984D02*
X13025062Y-11916984D01*
X13025062Y-11916984D02*
X13006015Y-11907460D01*
X13006015Y-11907460D02*
X12996491Y-11897936D01*
X12996491Y-11897936D02*
X12986967Y-11878888D01*
X12986967Y-11878888D02*
X12977443Y-11840793D01*
X12977443Y-11840793D02*
X12977443Y-11793174D01*
X12977443Y-11793174D02*
X12986967Y-11755079D01*
X12986967Y-11755079D02*
X12996491Y-11736031D01*
X12996491Y-11736031D02*
X13006015Y-11726508D01*
X13006015Y-11726508D02*
X13025062Y-11716984D01*
X13215539Y-11716984D02*
X13234586Y-11716984D01*
X13234586Y-11716984D02*
X13253634Y-11726508D01*
X13253634Y-11726508D02*
X13263158Y-11736031D01*
X13263158Y-11736031D02*
X13272682Y-11755079D01*
X13272682Y-11755079D02*
X13282205Y-11793174D01*
X13282205Y-11793174D02*
X13282205Y-11840793D01*
X13282205Y-11840793D02*
X13272682Y-11878888D01*
X13272682Y-11878888D02*
X13263158Y-11897936D01*
X13263158Y-11897936D02*
X13253634Y-11907460D01*
X13253634Y-11907460D02*
X13234586Y-11916984D01*
X13234586Y-11916984D02*
X13215539Y-11916984D01*
X13215539Y-11916984D02*
X13196491Y-11907460D01*
X13196491Y-11907460D02*
X13186967Y-11897936D01*
X13186967Y-11897936D02*
X13177443Y-11878888D01*
X13177443Y-11878888D02*
X13167920Y-11840793D01*
X13167920Y-11840793D02*
X13167920Y-11793174D01*
X13167920Y-11793174D02*
X13177443Y-11755079D01*
X13177443Y-11755079D02*
X13186967Y-11736031D01*
X13186967Y-11736031D02*
X13196491Y-11726508D01*
X13196491Y-11726508D02*
X13215539Y-11716984D01*
X13367920Y-11916984D02*
X13367920Y-11783650D01*
X13367920Y-11802698D02*
X13377443Y-11793174D01*
X13377443Y-11793174D02*
X13396491Y-11783650D01*
X13396491Y-11783650D02*
X13425063Y-11783650D01*
X13425063Y-11783650D02*
X13444110Y-11793174D01*
X13444110Y-11793174D02*
X13453634Y-11812222D01*
X13453634Y-11812222D02*
X13453634Y-11916984D01*
X13453634Y-11812222D02*
X13463158Y-11793174D01*
X13463158Y-11793174D02*
X13482205Y-11783650D01*
X13482205Y-11783650D02*
X13510777Y-11783650D01*
X13510777Y-11783650D02*
X13529824Y-11793174D01*
X13529824Y-11793174D02*
X13539348Y-11812222D01*
X13539348Y-11812222D02*
X13539348Y-11916984D01*
X13634586Y-11916984D02*
X13634586Y-11783650D01*
X13634586Y-11802698D02*
X13644110Y-11793174D01*
X13644110Y-11793174D02*
X13663158Y-11783650D01*
X13663158Y-11783650D02*
X13691729Y-11783650D01*
X13691729Y-11783650D02*
X13710777Y-11793174D01*
X13710777Y-11793174D02*
X13720301Y-11812222D01*
X13720301Y-11812222D02*
X13720301Y-11916984D01*
X13720301Y-11812222D02*
X13729824Y-11793174D01*
X13729824Y-11793174D02*
X13748872Y-11783650D01*
X13748872Y-11783650D02*
X13777443Y-11783650D01*
X13777443Y-11783650D02*
X13796491Y-11793174D01*
X13796491Y-11793174D02*
X13806015Y-11812222D01*
X13806015Y-11812222D02*
X13806015Y-11916984D01*
X14196491Y-11707460D02*
X14025063Y-11964603D01*
X14453634Y-11716984D02*
X14472682Y-11716984D01*
X14472682Y-11716984D02*
X14491729Y-11726508D01*
X14491729Y-11726508D02*
X14501253Y-11736031D01*
X14501253Y-11736031D02*
X14510777Y-11755079D01*
X14510777Y-11755079D02*
X14520301Y-11793174D01*
X14520301Y-11793174D02*
X14520301Y-11840793D01*
X14520301Y-11840793D02*
X14510777Y-11878888D01*
X14510777Y-11878888D02*
X14501253Y-11897936D01*
X14501253Y-11897936D02*
X14491729Y-11907460D01*
X14491729Y-11907460D02*
X14472682Y-11916984D01*
X14472682Y-11916984D02*
X14453634Y-11916984D01*
X14453634Y-11916984D02*
X14434586Y-11907460D01*
X14434586Y-11907460D02*
X14425063Y-11897936D01*
X14425063Y-11897936D02*
X14415539Y-11878888D01*
X14415539Y-11878888D02*
X14406015Y-11840793D01*
X14406015Y-11840793D02*
X14406015Y-11793174D01*
X14406015Y-11793174D02*
X14415539Y-11755079D01*
X14415539Y-11755079D02*
X14425063Y-11736031D01*
X14425063Y-11736031D02*
X14434586Y-11726508D01*
X14434586Y-11726508D02*
X14453634Y-11716984D01*
X14606015Y-11897936D02*
X14615539Y-11907460D01*
X14615539Y-11907460D02*
X14606015Y-11916984D01*
X14606015Y-11916984D02*
X14596491Y-11907460D01*
X14596491Y-11907460D02*
X14606015Y-11897936D01*
X14606015Y-11897936D02*
X14606015Y-11916984D01*
X14739348Y-11716984D02*
X14758396Y-11716984D01*
X14758396Y-11716984D02*
X14777444Y-11726508D01*
X14777444Y-11726508D02*
X14786967Y-11736031D01*
X14786967Y-11736031D02*
X14796491Y-11755079D01*
X14796491Y-11755079D02*
X14806015Y-11793174D01*
X14806015Y-11793174D02*
X14806015Y-11840793D01*
X14806015Y-11840793D02*
X14796491Y-11878888D01*
X14796491Y-11878888D02*
X14786967Y-11897936D01*
X14786967Y-11897936D02*
X14777444Y-11907460D01*
X14777444Y-11907460D02*
X14758396Y-11916984D01*
X14758396Y-11916984D02*
X14739348Y-11916984D01*
X14739348Y-11916984D02*
X14720301Y-11907460D01*
X14720301Y-11907460D02*
X14710777Y-11897936D01*
X14710777Y-11897936D02*
X14701253Y-11878888D01*
X14701253Y-11878888D02*
X14691729Y-11840793D01*
X14691729Y-11840793D02*
X14691729Y-11793174D01*
X14691729Y-11793174D02*
X14701253Y-11755079D01*
X14701253Y-11755079D02*
X14710777Y-11736031D01*
X14710777Y-11736031D02*
X14720301Y-11726508D01*
X14720301Y-11726508D02*
X14739348Y-11716984D01*
X14872682Y-11716984D02*
X14996491Y-11716984D01*
X14996491Y-11716984D02*
X14929825Y-11793174D01*
X14929825Y-11793174D02*
X14958396Y-11793174D01*
X14958396Y-11793174D02*
X14977444Y-11802698D01*
X14977444Y-11802698D02*
X14986967Y-11812222D01*
X14986967Y-11812222D02*
X14996491Y-11831269D01*
X14996491Y-11831269D02*
X14996491Y-11878888D01*
X14996491Y-11878888D02*
X14986967Y-11897936D01*
X14986967Y-11897936D02*
X14977444Y-11907460D01*
X14977444Y-11907460D02*
X14958396Y-11916984D01*
X14958396Y-11916984D02*
X14901253Y-11916984D01*
X14901253Y-11916984D02*
X14882206Y-11907460D01*
X14882206Y-11907460D02*
X14872682Y-11897936D01*
X15186967Y-11916984D02*
X15072682Y-11916984D01*
X15129825Y-11916984D02*
X15129825Y-11716984D01*
X15129825Y-11716984D02*
X15110777Y-11745555D01*
X15110777Y-11745555D02*
X15091729Y-11764603D01*
X15091729Y-11764603D02*
X15072682Y-11774127D01*
X15367920Y-11716984D02*
X15272682Y-11716984D01*
X15272682Y-11716984D02*
X15263158Y-11812222D01*
X15263158Y-11812222D02*
X15272682Y-11802698D01*
X15272682Y-11802698D02*
X15291729Y-11793174D01*
X15291729Y-11793174D02*
X15339348Y-11793174D01*
X15339348Y-11793174D02*
X15358396Y-11802698D01*
X15358396Y-11802698D02*
X15367920Y-11812222D01*
X15367920Y-11812222D02*
X15377444Y-11831269D01*
X15377444Y-11831269D02*
X15377444Y-11878888D01*
X15377444Y-11878888D02*
X15367920Y-11897936D01*
X15367920Y-11897936D02*
X15358396Y-11907460D01*
X15358396Y-11907460D02*
X15339348Y-11916984D01*
X15339348Y-11916984D02*
X15291729Y-11916984D01*
X15291729Y-11916984D02*
X15272682Y-11907460D01*
X15272682Y-11907460D02*
X15263158Y-11897936D01*
X15453634Y-11716984D02*
X15453634Y-11755079D01*
X15529825Y-11716984D02*
X15529825Y-11755079D01*
X15825063Y-11993174D02*
X15815539Y-11983650D01*
X15815539Y-11983650D02*
X15796491Y-11955079D01*
X15796491Y-11955079D02*
X15786968Y-11936031D01*
X15786968Y-11936031D02*
X15777444Y-11907460D01*
X15777444Y-11907460D02*
X15767920Y-11859841D01*
X15767920Y-11859841D02*
X15767920Y-11821746D01*
X15767920Y-11821746D02*
X15777444Y-11774127D01*
X15777444Y-11774127D02*
X15786968Y-11745555D01*
X15786968Y-11745555D02*
X15796491Y-11726508D01*
X15796491Y-11726508D02*
X15815539Y-11697936D01*
X15815539Y-11697936D02*
X15825063Y-11688412D01*
X16006015Y-11916984D02*
X15891729Y-11916984D01*
X15948872Y-11916984D02*
X15948872Y-11716984D01*
X15948872Y-11716984D02*
X15929825Y-11745555D01*
X15929825Y-11745555D02*
X15910777Y-11764603D01*
X15910777Y-11764603D02*
X15891729Y-11774127D01*
X16082206Y-11736031D02*
X16091729Y-11726508D01*
X16091729Y-11726508D02*
X16110777Y-11716984D01*
X16110777Y-11716984D02*
X16158396Y-11716984D01*
X16158396Y-11716984D02*
X16177444Y-11726508D01*
X16177444Y-11726508D02*
X16186968Y-11736031D01*
X16186968Y-11736031D02*
X16196491Y-11755079D01*
X16196491Y-11755079D02*
X16196491Y-11774127D01*
X16196491Y-11774127D02*
X16186968Y-11802698D01*
X16186968Y-11802698D02*
X16072682Y-11916984D01*
X16072682Y-11916984D02*
X16196491Y-11916984D01*
X16434587Y-11916984D02*
X16434587Y-11716984D01*
X16520301Y-11916984D02*
X16520301Y-11812222D01*
X16520301Y-11812222D02*
X16510777Y-11793174D01*
X16510777Y-11793174D02*
X16491730Y-11783650D01*
X16491730Y-11783650D02*
X16463158Y-11783650D01*
X16463158Y-11783650D02*
X16444110Y-11793174D01*
X16444110Y-11793174D02*
X16434587Y-11802698D01*
X16644110Y-11916984D02*
X16625063Y-11907460D01*
X16625063Y-11907460D02*
X16615539Y-11897936D01*
X16615539Y-11897936D02*
X16606015Y-11878888D01*
X16606015Y-11878888D02*
X16606015Y-11821746D01*
X16606015Y-11821746D02*
X16615539Y-11802698D01*
X16615539Y-11802698D02*
X16625063Y-11793174D01*
X16625063Y-11793174D02*
X16644110Y-11783650D01*
X16644110Y-11783650D02*
X16672682Y-11783650D01*
X16672682Y-11783650D02*
X16691730Y-11793174D01*
X16691730Y-11793174D02*
X16701253Y-11802698D01*
X16701253Y-11802698D02*
X16710777Y-11821746D01*
X16710777Y-11821746D02*
X16710777Y-11878888D01*
X16710777Y-11878888D02*
X16701253Y-11897936D01*
X16701253Y-11897936D02*
X16691730Y-11907460D01*
X16691730Y-11907460D02*
X16672682Y-11916984D01*
X16672682Y-11916984D02*
X16644110Y-11916984D01*
X16825063Y-11916984D02*
X16806015Y-11907460D01*
X16806015Y-11907460D02*
X16796492Y-11888412D01*
X16796492Y-11888412D02*
X16796492Y-11716984D01*
X16977444Y-11907460D02*
X16958396Y-11916984D01*
X16958396Y-11916984D02*
X16920301Y-11916984D01*
X16920301Y-11916984D02*
X16901253Y-11907460D01*
X16901253Y-11907460D02*
X16891730Y-11888412D01*
X16891730Y-11888412D02*
X16891730Y-11812222D01*
X16891730Y-11812222D02*
X16901253Y-11793174D01*
X16901253Y-11793174D02*
X16920301Y-11783650D01*
X16920301Y-11783650D02*
X16958396Y-11783650D01*
X16958396Y-11783650D02*
X16977444Y-11793174D01*
X16977444Y-11793174D02*
X16986968Y-11812222D01*
X16986968Y-11812222D02*
X16986968Y-11831269D01*
X16986968Y-11831269D02*
X16891730Y-11850317D01*
X17063158Y-11907460D02*
X17082206Y-11916984D01*
X17082206Y-11916984D02*
X17120301Y-11916984D01*
X17120301Y-11916984D02*
X17139349Y-11907460D01*
X17139349Y-11907460D02*
X17148873Y-11888412D01*
X17148873Y-11888412D02*
X17148873Y-11878888D01*
X17148873Y-11878888D02*
X17139349Y-11859841D01*
X17139349Y-11859841D02*
X17120301Y-11850317D01*
X17120301Y-11850317D02*
X17091730Y-11850317D01*
X17091730Y-11850317D02*
X17072682Y-11840793D01*
X17072682Y-11840793D02*
X17063158Y-11821746D01*
X17063158Y-11821746D02*
X17063158Y-11812222D01*
X17063158Y-11812222D02*
X17072682Y-11793174D01*
X17072682Y-11793174D02*
X17091730Y-11783650D01*
X17091730Y-11783650D02*
X17120301Y-11783650D01*
X17120301Y-11783650D02*
X17139349Y-11793174D01*
X17215539Y-11993174D02*
X17225063Y-11983650D01*
X17225063Y-11983650D02*
X17244111Y-11955079D01*
X17244111Y-11955079D02*
X17253634Y-11936031D01*
X17253634Y-11936031D02*
X17263158Y-11907460D01*
X17263158Y-11907460D02*
X17272682Y-11859841D01*
X17272682Y-11859841D02*
X17272682Y-11821746D01*
X17272682Y-11821746D02*
X17263158Y-11774127D01*
X17263158Y-11774127D02*
X17253634Y-11745555D01*
X17253634Y-11745555D02*
X17244111Y-11726508D01*
X17244111Y-11726508D02*
X17225063Y-11697936D01*
X17225063Y-11697936D02*
X17215539Y-11688412D01*
D11*
X12205000Y-12044500D02*
X12205000Y-12134500D01*
X12160000Y-12089500D02*
X12250000Y-12089500D01*
D10*
X12548872Y-11980984D02*
X12567920Y-11980984D01*
X12567920Y-11980984D02*
X12586967Y-11990508D01*
X12586967Y-11990508D02*
X12596491Y-12000031D01*
X12596491Y-12000031D02*
X12606015Y-12019079D01*
X12606015Y-12019079D02*
X12615539Y-12057174D01*
X12615539Y-12057174D02*
X12615539Y-12104793D01*
X12615539Y-12104793D02*
X12606015Y-12142888D01*
X12606015Y-12142888D02*
X12596491Y-12161936D01*
X12596491Y-12161936D02*
X12586967Y-12171460D01*
X12586967Y-12171460D02*
X12567920Y-12180984D01*
X12567920Y-12180984D02*
X12548872Y-12180984D01*
X12548872Y-12180984D02*
X12529824Y-12171460D01*
X12529824Y-12171460D02*
X12520301Y-12161936D01*
X12520301Y-12161936D02*
X12510777Y-12142888D01*
X12510777Y-12142888D02*
X12501253Y-12104793D01*
X12501253Y-12104793D02*
X12501253Y-12057174D01*
X12501253Y-12057174D02*
X12510777Y-12019079D01*
X12510777Y-12019079D02*
X12520301Y-12000031D01*
X12520301Y-12000031D02*
X12529824Y-11990508D01*
X12529824Y-11990508D02*
X12548872Y-11980984D01*
X12701253Y-12161936D02*
X12710777Y-12171460D01*
X12710777Y-12171460D02*
X12701253Y-12180984D01*
X12701253Y-12180984D02*
X12691729Y-12171460D01*
X12691729Y-12171460D02*
X12701253Y-12161936D01*
X12701253Y-12161936D02*
X12701253Y-12180984D01*
X12806015Y-12180984D02*
X12844110Y-12180984D01*
X12844110Y-12180984D02*
X12863158Y-12171460D01*
X12863158Y-12171460D02*
X12872682Y-12161936D01*
X12872682Y-12161936D02*
X12891729Y-12133365D01*
X12891729Y-12133365D02*
X12901253Y-12095269D01*
X12901253Y-12095269D02*
X12901253Y-12019079D01*
X12901253Y-12019079D02*
X12891729Y-12000031D01*
X12891729Y-12000031D02*
X12882205Y-11990508D01*
X12882205Y-11990508D02*
X12863158Y-11980984D01*
X12863158Y-11980984D02*
X12825062Y-11980984D01*
X12825062Y-11980984D02*
X12806015Y-11990508D01*
X12806015Y-11990508D02*
X12796491Y-12000031D01*
X12796491Y-12000031D02*
X12786967Y-12019079D01*
X12786967Y-12019079D02*
X12786967Y-12066698D01*
X12786967Y-12066698D02*
X12796491Y-12085746D01*
X12796491Y-12085746D02*
X12806015Y-12095269D01*
X12806015Y-12095269D02*
X12825062Y-12104793D01*
X12825062Y-12104793D02*
X12863158Y-12104793D01*
X12863158Y-12104793D02*
X12882205Y-12095269D01*
X12882205Y-12095269D02*
X12891729Y-12085746D01*
X12891729Y-12085746D02*
X12901253Y-12066698D01*
X13025062Y-11980984D02*
X13044110Y-11980984D01*
X13044110Y-11980984D02*
X13063158Y-11990508D01*
X13063158Y-11990508D02*
X13072682Y-12000031D01*
X13072682Y-12000031D02*
X13082205Y-12019079D01*
X13082205Y-12019079D02*
X13091729Y-12057174D01*
X13091729Y-12057174D02*
X13091729Y-12104793D01*
X13091729Y-12104793D02*
X13082205Y-12142888D01*
X13082205Y-12142888D02*
X13072682Y-12161936D01*
X13072682Y-12161936D02*
X13063158Y-12171460D01*
X13063158Y-12171460D02*
X13044110Y-12180984D01*
X13044110Y-12180984D02*
X13025062Y-12180984D01*
X13025062Y-12180984D02*
X13006015Y-12171460D01*
X13006015Y-12171460D02*
X12996491Y-12161936D01*
X12996491Y-12161936D02*
X12986967Y-12142888D01*
X12986967Y-12142888D02*
X12977443Y-12104793D01*
X12977443Y-12104793D02*
X12977443Y-12057174D01*
X12977443Y-12057174D02*
X12986967Y-12019079D01*
X12986967Y-12019079D02*
X12996491Y-12000031D01*
X12996491Y-12000031D02*
X13006015Y-11990508D01*
X13006015Y-11990508D02*
X13025062Y-11980984D01*
X13215539Y-11980984D02*
X13234586Y-11980984D01*
X13234586Y-11980984D02*
X13253634Y-11990508D01*
X13253634Y-11990508D02*
X13263158Y-12000031D01*
X13263158Y-12000031D02*
X13272682Y-12019079D01*
X13272682Y-12019079D02*
X13282205Y-12057174D01*
X13282205Y-12057174D02*
X13282205Y-12104793D01*
X13282205Y-12104793D02*
X13272682Y-12142888D01*
X13272682Y-12142888D02*
X13263158Y-12161936D01*
X13263158Y-12161936D02*
X13253634Y-12171460D01*
X13253634Y-12171460D02*
X13234586Y-12180984D01*
X13234586Y-12180984D02*
X13215539Y-12180984D01*
X13215539Y-12180984D02*
X13196491Y-12171460D01*
X13196491Y-12171460D02*
X13186967Y-12161936D01*
X13186967Y-12161936D02*
X13177443Y-12142888D01*
X13177443Y-12142888D02*
X13167920Y-12104793D01*
X13167920Y-12104793D02*
X13167920Y-12057174D01*
X13167920Y-12057174D02*
X13177443Y-12019079D01*
X13177443Y-12019079D02*
X13186967Y-12000031D01*
X13186967Y-12000031D02*
X13196491Y-11990508D01*
X13196491Y-11990508D02*
X13215539Y-11980984D01*
X13367920Y-12180984D02*
X13367920Y-12047650D01*
X13367920Y-12066698D02*
X13377443Y-12057174D01*
X13377443Y-12057174D02*
X13396491Y-12047650D01*
X13396491Y-12047650D02*
X13425063Y-12047650D01*
X13425063Y-12047650D02*
X13444110Y-12057174D01*
X13444110Y-12057174D02*
X13453634Y-12076222D01*
X13453634Y-12076222D02*
X13453634Y-12180984D01*
X13453634Y-12076222D02*
X13463158Y-12057174D01*
X13463158Y-12057174D02*
X13482205Y-12047650D01*
X13482205Y-12047650D02*
X13510777Y-12047650D01*
X13510777Y-12047650D02*
X13529824Y-12057174D01*
X13529824Y-12057174D02*
X13539348Y-12076222D01*
X13539348Y-12076222D02*
X13539348Y-12180984D01*
X13634586Y-12180984D02*
X13634586Y-12047650D01*
X13634586Y-12066698D02*
X13644110Y-12057174D01*
X13644110Y-12057174D02*
X13663158Y-12047650D01*
X13663158Y-12047650D02*
X13691729Y-12047650D01*
X13691729Y-12047650D02*
X13710777Y-12057174D01*
X13710777Y-12057174D02*
X13720301Y-12076222D01*
X13720301Y-12076222D02*
X13720301Y-12180984D01*
X13720301Y-12076222D02*
X13729824Y-12057174D01*
X13729824Y-12057174D02*
X13748872Y-12047650D01*
X13748872Y-12047650D02*
X13777443Y-12047650D01*
X13777443Y-12047650D02*
X13796491Y-12057174D01*
X13796491Y-12057174D02*
X13806015Y-12076222D01*
X13806015Y-12076222D02*
X13806015Y-12180984D01*
X14196491Y-11971460D02*
X14025063Y-12228603D01*
X14453634Y-11980984D02*
X14472682Y-11980984D01*
X14472682Y-11980984D02*
X14491729Y-11990508D01*
X14491729Y-11990508D02*
X14501253Y-12000031D01*
X14501253Y-12000031D02*
X14510777Y-12019079D01*
X14510777Y-12019079D02*
X14520301Y-12057174D01*
X14520301Y-12057174D02*
X14520301Y-12104793D01*
X14520301Y-12104793D02*
X14510777Y-12142888D01*
X14510777Y-12142888D02*
X14501253Y-12161936D01*
X14501253Y-12161936D02*
X14491729Y-12171460D01*
X14491729Y-12171460D02*
X14472682Y-12180984D01*
X14472682Y-12180984D02*
X14453634Y-12180984D01*
X14453634Y-12180984D02*
X14434586Y-12171460D01*
X14434586Y-12171460D02*
X14425063Y-12161936D01*
X14425063Y-12161936D02*
X14415539Y-12142888D01*
X14415539Y-12142888D02*
X14406015Y-12104793D01*
X14406015Y-12104793D02*
X14406015Y-12057174D01*
X14406015Y-12057174D02*
X14415539Y-12019079D01*
X14415539Y-12019079D02*
X14425063Y-12000031D01*
X14425063Y-12000031D02*
X14434586Y-11990508D01*
X14434586Y-11990508D02*
X14453634Y-11980984D01*
X14606015Y-12161936D02*
X14615539Y-12171460D01*
X14615539Y-12171460D02*
X14606015Y-12180984D01*
X14606015Y-12180984D02*
X14596491Y-12171460D01*
X14596491Y-12171460D02*
X14606015Y-12161936D01*
X14606015Y-12161936D02*
X14606015Y-12180984D01*
X14739348Y-11980984D02*
X14758396Y-11980984D01*
X14758396Y-11980984D02*
X14777444Y-11990508D01*
X14777444Y-11990508D02*
X14786967Y-12000031D01*
X14786967Y-12000031D02*
X14796491Y-12019079D01*
X14796491Y-12019079D02*
X14806015Y-12057174D01*
X14806015Y-12057174D02*
X14806015Y-12104793D01*
X14806015Y-12104793D02*
X14796491Y-12142888D01*
X14796491Y-12142888D02*
X14786967Y-12161936D01*
X14786967Y-12161936D02*
X14777444Y-12171460D01*
X14777444Y-12171460D02*
X14758396Y-12180984D01*
X14758396Y-12180984D02*
X14739348Y-12180984D01*
X14739348Y-12180984D02*
X14720301Y-12171460D01*
X14720301Y-12171460D02*
X14710777Y-12161936D01*
X14710777Y-12161936D02*
X14701253Y-12142888D01*
X14701253Y-12142888D02*
X14691729Y-12104793D01*
X14691729Y-12104793D02*
X14691729Y-12057174D01*
X14691729Y-12057174D02*
X14701253Y-12019079D01*
X14701253Y-12019079D02*
X14710777Y-12000031D01*
X14710777Y-12000031D02*
X14720301Y-11990508D01*
X14720301Y-11990508D02*
X14739348Y-11980984D01*
X14872682Y-11980984D02*
X14996491Y-11980984D01*
X14996491Y-11980984D02*
X14929825Y-12057174D01*
X14929825Y-12057174D02*
X14958396Y-12057174D01*
X14958396Y-12057174D02*
X14977444Y-12066698D01*
X14977444Y-12066698D02*
X14986967Y-12076222D01*
X14986967Y-12076222D02*
X14996491Y-12095269D01*
X14996491Y-12095269D02*
X14996491Y-12142888D01*
X14996491Y-12142888D02*
X14986967Y-12161936D01*
X14986967Y-12161936D02*
X14977444Y-12171460D01*
X14977444Y-12171460D02*
X14958396Y-12180984D01*
X14958396Y-12180984D02*
X14901253Y-12180984D01*
X14901253Y-12180984D02*
X14882206Y-12171460D01*
X14882206Y-12171460D02*
X14872682Y-12161936D01*
X15177444Y-11980984D02*
X15082206Y-11980984D01*
X15082206Y-11980984D02*
X15072682Y-12076222D01*
X15072682Y-12076222D02*
X15082206Y-12066698D01*
X15082206Y-12066698D02*
X15101253Y-12057174D01*
X15101253Y-12057174D02*
X15148872Y-12057174D01*
X15148872Y-12057174D02*
X15167920Y-12066698D01*
X15167920Y-12066698D02*
X15177444Y-12076222D01*
X15177444Y-12076222D02*
X15186967Y-12095269D01*
X15186967Y-12095269D02*
X15186967Y-12142888D01*
X15186967Y-12142888D02*
X15177444Y-12161936D01*
X15177444Y-12161936D02*
X15167920Y-12171460D01*
X15167920Y-12171460D02*
X15148872Y-12180984D01*
X15148872Y-12180984D02*
X15101253Y-12180984D01*
X15101253Y-12180984D02*
X15082206Y-12171460D01*
X15082206Y-12171460D02*
X15072682Y-12161936D01*
X15358396Y-12047650D02*
X15358396Y-12180984D01*
X15310777Y-11971460D02*
X15263158Y-12114317D01*
X15263158Y-12114317D02*
X15386967Y-12114317D01*
X15453634Y-11980984D02*
X15453634Y-12019079D01*
X15529825Y-11980984D02*
X15529825Y-12019079D01*
X15825063Y-12257174D02*
X15815539Y-12247650D01*
X15815539Y-12247650D02*
X15796491Y-12219079D01*
X15796491Y-12219079D02*
X15786968Y-12200031D01*
X15786968Y-12200031D02*
X15777444Y-12171460D01*
X15777444Y-12171460D02*
X15767920Y-12123841D01*
X15767920Y-12123841D02*
X15767920Y-12085746D01*
X15767920Y-12085746D02*
X15777444Y-12038127D01*
X15777444Y-12038127D02*
X15786968Y-12009555D01*
X15786968Y-12009555D02*
X15796491Y-11990508D01*
X15796491Y-11990508D02*
X15815539Y-11961936D01*
X15815539Y-11961936D02*
X15825063Y-11952412D01*
X15891729Y-12000031D02*
X15901253Y-11990508D01*
X15901253Y-11990508D02*
X15920301Y-11980984D01*
X15920301Y-11980984D02*
X15967920Y-11980984D01*
X15967920Y-11980984D02*
X15986968Y-11990508D01*
X15986968Y-11990508D02*
X15996491Y-12000031D01*
X15996491Y-12000031D02*
X16006015Y-12019079D01*
X16006015Y-12019079D02*
X16006015Y-12038127D01*
X16006015Y-12038127D02*
X15996491Y-12066698D01*
X15996491Y-12066698D02*
X15882206Y-12180984D01*
X15882206Y-12180984D02*
X16006015Y-12180984D01*
X16244110Y-12180984D02*
X16244110Y-11980984D01*
X16329825Y-12180984D02*
X16329825Y-12076222D01*
X16329825Y-12076222D02*
X16320301Y-12057174D01*
X16320301Y-12057174D02*
X16301253Y-12047650D01*
X16301253Y-12047650D02*
X16272682Y-12047650D01*
X16272682Y-12047650D02*
X16253634Y-12057174D01*
X16253634Y-12057174D02*
X16244110Y-12066698D01*
X16453634Y-12180984D02*
X16434587Y-12171460D01*
X16434587Y-12171460D02*
X16425063Y-12161936D01*
X16425063Y-12161936D02*
X16415539Y-12142888D01*
X16415539Y-12142888D02*
X16415539Y-12085746D01*
X16415539Y-12085746D02*
X16425063Y-12066698D01*
X16425063Y-12066698D02*
X16434587Y-12057174D01*
X16434587Y-12057174D02*
X16453634Y-12047650D01*
X16453634Y-12047650D02*
X16482206Y-12047650D01*
X16482206Y-12047650D02*
X16501253Y-12057174D01*
X16501253Y-12057174D02*
X16510777Y-12066698D01*
X16510777Y-12066698D02*
X16520301Y-12085746D01*
X16520301Y-12085746D02*
X16520301Y-12142888D01*
X16520301Y-12142888D02*
X16510777Y-12161936D01*
X16510777Y-12161936D02*
X16501253Y-12171460D01*
X16501253Y-12171460D02*
X16482206Y-12180984D01*
X16482206Y-12180984D02*
X16453634Y-12180984D01*
X16634587Y-12180984D02*
X16615539Y-12171460D01*
X16615539Y-12171460D02*
X16606015Y-12152412D01*
X16606015Y-12152412D02*
X16606015Y-11980984D01*
X16786968Y-12171460D02*
X16767920Y-12180984D01*
X16767920Y-12180984D02*
X16729825Y-12180984D01*
X16729825Y-12180984D02*
X16710777Y-12171460D01*
X16710777Y-12171460D02*
X16701253Y-12152412D01*
X16701253Y-12152412D02*
X16701253Y-12076222D01*
X16701253Y-12076222D02*
X16710777Y-12057174D01*
X16710777Y-12057174D02*
X16729825Y-12047650D01*
X16729825Y-12047650D02*
X16767920Y-12047650D01*
X16767920Y-12047650D02*
X16786968Y-12057174D01*
X16786968Y-12057174D02*
X16796492Y-12076222D01*
X16796492Y-12076222D02*
X16796492Y-12095269D01*
X16796492Y-12095269D02*
X16701253Y-12114317D01*
X16872682Y-12171460D02*
X16891730Y-12180984D01*
X16891730Y-12180984D02*
X16929825Y-12180984D01*
X16929825Y-12180984D02*
X16948873Y-12171460D01*
X16948873Y-12171460D02*
X16958396Y-12152412D01*
X16958396Y-12152412D02*
X16958396Y-12142888D01*
X16958396Y-12142888D02*
X16948873Y-12123841D01*
X16948873Y-12123841D02*
X16929825Y-12114317D01*
X16929825Y-12114317D02*
X16901253Y-12114317D01*
X16901253Y-12114317D02*
X16882206Y-12104793D01*
X16882206Y-12104793D02*
X16872682Y-12085746D01*
X16872682Y-12085746D02*
X16872682Y-12076222D01*
X16872682Y-12076222D02*
X16882206Y-12057174D01*
X16882206Y-12057174D02*
X16901253Y-12047650D01*
X16901253Y-12047650D02*
X16929825Y-12047650D01*
X16929825Y-12047650D02*
X16948873Y-12057174D01*
X17025063Y-12257174D02*
X17034587Y-12247650D01*
X17034587Y-12247650D02*
X17053634Y-12219079D01*
X17053634Y-12219079D02*
X17063158Y-12200031D01*
X17063158Y-12200031D02*
X17072682Y-12171460D01*
X17072682Y-12171460D02*
X17082206Y-12123841D01*
X17082206Y-12123841D02*
X17082206Y-12085746D01*
X17082206Y-12085746D02*
X17072682Y-12038127D01*
X17072682Y-12038127D02*
X17063158Y-12009555D01*
X17063158Y-12009555D02*
X17053634Y-11990508D01*
X17053634Y-11990508D02*
X17034587Y-11961936D01*
X17034587Y-11961936D02*
X17025063Y-11952412D01*
D11*
X12235356Y-12388856D02*
X12235356Y-12318144D01*
X12164644Y-12318144D01*
X12164644Y-12388856D01*
X12235356Y-12388856D01*
D10*
X12615539Y-12444984D02*
X12501253Y-12444984D01*
X12558396Y-12444984D02*
X12558396Y-12244984D01*
X12558396Y-12244984D02*
X12539348Y-12273555D01*
X12539348Y-12273555D02*
X12520301Y-12292603D01*
X12520301Y-12292603D02*
X12501253Y-12302127D01*
X12701253Y-12425936D02*
X12710777Y-12435460D01*
X12710777Y-12435460D02*
X12701253Y-12444984D01*
X12701253Y-12444984D02*
X12691729Y-12435460D01*
X12691729Y-12435460D02*
X12701253Y-12425936D01*
X12701253Y-12425936D02*
X12701253Y-12444984D01*
X12834586Y-12244984D02*
X12853634Y-12244984D01*
X12853634Y-12244984D02*
X12872682Y-12254508D01*
X12872682Y-12254508D02*
X12882205Y-12264031D01*
X12882205Y-12264031D02*
X12891729Y-12283079D01*
X12891729Y-12283079D02*
X12901253Y-12321174D01*
X12901253Y-12321174D02*
X12901253Y-12368793D01*
X12901253Y-12368793D02*
X12891729Y-12406888D01*
X12891729Y-12406888D02*
X12882205Y-12425936D01*
X12882205Y-12425936D02*
X12872682Y-12435460D01*
X12872682Y-12435460D02*
X12853634Y-12444984D01*
X12853634Y-12444984D02*
X12834586Y-12444984D01*
X12834586Y-12444984D02*
X12815539Y-12435460D01*
X12815539Y-12435460D02*
X12806015Y-12425936D01*
X12806015Y-12425936D02*
X12796491Y-12406888D01*
X12796491Y-12406888D02*
X12786967Y-12368793D01*
X12786967Y-12368793D02*
X12786967Y-12321174D01*
X12786967Y-12321174D02*
X12796491Y-12283079D01*
X12796491Y-12283079D02*
X12806015Y-12264031D01*
X12806015Y-12264031D02*
X12815539Y-12254508D01*
X12815539Y-12254508D02*
X12834586Y-12244984D01*
X13025062Y-12244984D02*
X13044110Y-12244984D01*
X13044110Y-12244984D02*
X13063158Y-12254508D01*
X13063158Y-12254508D02*
X13072682Y-12264031D01*
X13072682Y-12264031D02*
X13082205Y-12283079D01*
X13082205Y-12283079D02*
X13091729Y-12321174D01*
X13091729Y-12321174D02*
X13091729Y-12368793D01*
X13091729Y-12368793D02*
X13082205Y-12406888D01*
X13082205Y-12406888D02*
X13072682Y-12425936D01*
X13072682Y-12425936D02*
X13063158Y-12435460D01*
X13063158Y-12435460D02*
X13044110Y-12444984D01*
X13044110Y-12444984D02*
X13025062Y-12444984D01*
X13025062Y-12444984D02*
X13006015Y-12435460D01*
X13006015Y-12435460D02*
X12996491Y-12425936D01*
X12996491Y-12425936D02*
X12986967Y-12406888D01*
X12986967Y-12406888D02*
X12977443Y-12368793D01*
X12977443Y-12368793D02*
X12977443Y-12321174D01*
X12977443Y-12321174D02*
X12986967Y-12283079D01*
X12986967Y-12283079D02*
X12996491Y-12264031D01*
X12996491Y-12264031D02*
X13006015Y-12254508D01*
X13006015Y-12254508D02*
X13025062Y-12244984D01*
X13215539Y-12244984D02*
X13234586Y-12244984D01*
X13234586Y-12244984D02*
X13253634Y-12254508D01*
X13253634Y-12254508D02*
X13263158Y-12264031D01*
X13263158Y-12264031D02*
X13272682Y-12283079D01*
X13272682Y-12283079D02*
X13282205Y-12321174D01*
X13282205Y-12321174D02*
X13282205Y-12368793D01*
X13282205Y-12368793D02*
X13272682Y-12406888D01*
X13272682Y-12406888D02*
X13263158Y-12425936D01*
X13263158Y-12425936D02*
X13253634Y-12435460D01*
X13253634Y-12435460D02*
X13234586Y-12444984D01*
X13234586Y-12444984D02*
X13215539Y-12444984D01*
X13215539Y-12444984D02*
X13196491Y-12435460D01*
X13196491Y-12435460D02*
X13186967Y-12425936D01*
X13186967Y-12425936D02*
X13177443Y-12406888D01*
X13177443Y-12406888D02*
X13167920Y-12368793D01*
X13167920Y-12368793D02*
X13167920Y-12321174D01*
X13167920Y-12321174D02*
X13177443Y-12283079D01*
X13177443Y-12283079D02*
X13186967Y-12264031D01*
X13186967Y-12264031D02*
X13196491Y-12254508D01*
X13196491Y-12254508D02*
X13215539Y-12244984D01*
X13367920Y-12444984D02*
X13367920Y-12311650D01*
X13367920Y-12330698D02*
X13377443Y-12321174D01*
X13377443Y-12321174D02*
X13396491Y-12311650D01*
X13396491Y-12311650D02*
X13425063Y-12311650D01*
X13425063Y-12311650D02*
X13444110Y-12321174D01*
X13444110Y-12321174D02*
X13453634Y-12340222D01*
X13453634Y-12340222D02*
X13453634Y-12444984D01*
X13453634Y-12340222D02*
X13463158Y-12321174D01*
X13463158Y-12321174D02*
X13482205Y-12311650D01*
X13482205Y-12311650D02*
X13510777Y-12311650D01*
X13510777Y-12311650D02*
X13529824Y-12321174D01*
X13529824Y-12321174D02*
X13539348Y-12340222D01*
X13539348Y-12340222D02*
X13539348Y-12444984D01*
X13634586Y-12444984D02*
X13634586Y-12311650D01*
X13634586Y-12330698D02*
X13644110Y-12321174D01*
X13644110Y-12321174D02*
X13663158Y-12311650D01*
X13663158Y-12311650D02*
X13691729Y-12311650D01*
X13691729Y-12311650D02*
X13710777Y-12321174D01*
X13710777Y-12321174D02*
X13720301Y-12340222D01*
X13720301Y-12340222D02*
X13720301Y-12444984D01*
X13720301Y-12340222D02*
X13729824Y-12321174D01*
X13729824Y-12321174D02*
X13748872Y-12311650D01*
X13748872Y-12311650D02*
X13777443Y-12311650D01*
X13777443Y-12311650D02*
X13796491Y-12321174D01*
X13796491Y-12321174D02*
X13806015Y-12340222D01*
X13806015Y-12340222D02*
X13806015Y-12444984D01*
X14196491Y-12235460D02*
X14025063Y-12492603D01*
X14453634Y-12244984D02*
X14472682Y-12244984D01*
X14472682Y-12244984D02*
X14491729Y-12254508D01*
X14491729Y-12254508D02*
X14501253Y-12264031D01*
X14501253Y-12264031D02*
X14510777Y-12283079D01*
X14510777Y-12283079D02*
X14520301Y-12321174D01*
X14520301Y-12321174D02*
X14520301Y-12368793D01*
X14520301Y-12368793D02*
X14510777Y-12406888D01*
X14510777Y-12406888D02*
X14501253Y-12425936D01*
X14501253Y-12425936D02*
X14491729Y-12435460D01*
X14491729Y-12435460D02*
X14472682Y-12444984D01*
X14472682Y-12444984D02*
X14453634Y-12444984D01*
X14453634Y-12444984D02*
X14434586Y-12435460D01*
X14434586Y-12435460D02*
X14425063Y-12425936D01*
X14425063Y-12425936D02*
X14415539Y-12406888D01*
X14415539Y-12406888D02*
X14406015Y-12368793D01*
X14406015Y-12368793D02*
X14406015Y-12321174D01*
X14406015Y-12321174D02*
X14415539Y-12283079D01*
X14415539Y-12283079D02*
X14425063Y-12264031D01*
X14425063Y-12264031D02*
X14434586Y-12254508D01*
X14434586Y-12254508D02*
X14453634Y-12244984D01*
X14606015Y-12425936D02*
X14615539Y-12435460D01*
X14615539Y-12435460D02*
X14606015Y-12444984D01*
X14606015Y-12444984D02*
X14596491Y-12435460D01*
X14596491Y-12435460D02*
X14606015Y-12425936D01*
X14606015Y-12425936D02*
X14606015Y-12444984D01*
X14739348Y-12244984D02*
X14758396Y-12244984D01*
X14758396Y-12244984D02*
X14777444Y-12254508D01*
X14777444Y-12254508D02*
X14786967Y-12264031D01*
X14786967Y-12264031D02*
X14796491Y-12283079D01*
X14796491Y-12283079D02*
X14806015Y-12321174D01*
X14806015Y-12321174D02*
X14806015Y-12368793D01*
X14806015Y-12368793D02*
X14796491Y-12406888D01*
X14796491Y-12406888D02*
X14786967Y-12425936D01*
X14786967Y-12425936D02*
X14777444Y-12435460D01*
X14777444Y-12435460D02*
X14758396Y-12444984D01*
X14758396Y-12444984D02*
X14739348Y-12444984D01*
X14739348Y-12444984D02*
X14720301Y-12435460D01*
X14720301Y-12435460D02*
X14710777Y-12425936D01*
X14710777Y-12425936D02*
X14701253Y-12406888D01*
X14701253Y-12406888D02*
X14691729Y-12368793D01*
X14691729Y-12368793D02*
X14691729Y-12321174D01*
X14691729Y-12321174D02*
X14701253Y-12283079D01*
X14701253Y-12283079D02*
X14710777Y-12264031D01*
X14710777Y-12264031D02*
X14720301Y-12254508D01*
X14720301Y-12254508D02*
X14739348Y-12244984D01*
X14872682Y-12244984D02*
X14996491Y-12244984D01*
X14996491Y-12244984D02*
X14929825Y-12321174D01*
X14929825Y-12321174D02*
X14958396Y-12321174D01*
X14958396Y-12321174D02*
X14977444Y-12330698D01*
X14977444Y-12330698D02*
X14986967Y-12340222D01*
X14986967Y-12340222D02*
X14996491Y-12359269D01*
X14996491Y-12359269D02*
X14996491Y-12406888D01*
X14996491Y-12406888D02*
X14986967Y-12425936D01*
X14986967Y-12425936D02*
X14977444Y-12435460D01*
X14977444Y-12435460D02*
X14958396Y-12444984D01*
X14958396Y-12444984D02*
X14901253Y-12444984D01*
X14901253Y-12444984D02*
X14882206Y-12435460D01*
X14882206Y-12435460D02*
X14872682Y-12425936D01*
X15091729Y-12444984D02*
X15129825Y-12444984D01*
X15129825Y-12444984D02*
X15148872Y-12435460D01*
X15148872Y-12435460D02*
X15158396Y-12425936D01*
X15158396Y-12425936D02*
X15177444Y-12397365D01*
X15177444Y-12397365D02*
X15186967Y-12359269D01*
X15186967Y-12359269D02*
X15186967Y-12283079D01*
X15186967Y-12283079D02*
X15177444Y-12264031D01*
X15177444Y-12264031D02*
X15167920Y-12254508D01*
X15167920Y-12254508D02*
X15148872Y-12244984D01*
X15148872Y-12244984D02*
X15110777Y-12244984D01*
X15110777Y-12244984D02*
X15091729Y-12254508D01*
X15091729Y-12254508D02*
X15082206Y-12264031D01*
X15082206Y-12264031D02*
X15072682Y-12283079D01*
X15072682Y-12283079D02*
X15072682Y-12330698D01*
X15072682Y-12330698D02*
X15082206Y-12349746D01*
X15082206Y-12349746D02*
X15091729Y-12359269D01*
X15091729Y-12359269D02*
X15110777Y-12368793D01*
X15110777Y-12368793D02*
X15148872Y-12368793D01*
X15148872Y-12368793D02*
X15167920Y-12359269D01*
X15167920Y-12359269D02*
X15177444Y-12349746D01*
X15177444Y-12349746D02*
X15186967Y-12330698D01*
X15358396Y-12311650D02*
X15358396Y-12444984D01*
X15310777Y-12235460D02*
X15263158Y-12378317D01*
X15263158Y-12378317D02*
X15386967Y-12378317D01*
X15453634Y-12244984D02*
X15453634Y-12283079D01*
X15529825Y-12244984D02*
X15529825Y-12283079D01*
X15825063Y-12521174D02*
X15815539Y-12511650D01*
X15815539Y-12511650D02*
X15796491Y-12483079D01*
X15796491Y-12483079D02*
X15786968Y-12464031D01*
X15786968Y-12464031D02*
X15777444Y-12435460D01*
X15777444Y-12435460D02*
X15767920Y-12387841D01*
X15767920Y-12387841D02*
X15767920Y-12349746D01*
X15767920Y-12349746D02*
X15777444Y-12302127D01*
X15777444Y-12302127D02*
X15786968Y-12273555D01*
X15786968Y-12273555D02*
X15796491Y-12254508D01*
X15796491Y-12254508D02*
X15815539Y-12225936D01*
X15815539Y-12225936D02*
X15825063Y-12216412D01*
X15996491Y-12244984D02*
X15901253Y-12244984D01*
X15901253Y-12244984D02*
X15891729Y-12340222D01*
X15891729Y-12340222D02*
X15901253Y-12330698D01*
X15901253Y-12330698D02*
X15920301Y-12321174D01*
X15920301Y-12321174D02*
X15967920Y-12321174D01*
X15967920Y-12321174D02*
X15986968Y-12330698D01*
X15986968Y-12330698D02*
X15996491Y-12340222D01*
X15996491Y-12340222D02*
X16006015Y-12359269D01*
X16006015Y-12359269D02*
X16006015Y-12406888D01*
X16006015Y-12406888D02*
X15996491Y-12425936D01*
X15996491Y-12425936D02*
X15986968Y-12435460D01*
X15986968Y-12435460D02*
X15967920Y-12444984D01*
X15967920Y-12444984D02*
X15920301Y-12444984D01*
X15920301Y-12444984D02*
X15901253Y-12435460D01*
X15901253Y-12435460D02*
X15891729Y-12425936D01*
X16244110Y-12444984D02*
X16244110Y-12244984D01*
X16329825Y-12444984D02*
X16329825Y-12340222D01*
X16329825Y-12340222D02*
X16320301Y-12321174D01*
X16320301Y-12321174D02*
X16301253Y-12311650D01*
X16301253Y-12311650D02*
X16272682Y-12311650D01*
X16272682Y-12311650D02*
X16253634Y-12321174D01*
X16253634Y-12321174D02*
X16244110Y-12330698D01*
X16453634Y-12444984D02*
X16434587Y-12435460D01*
X16434587Y-12435460D02*
X16425063Y-12425936D01*
X16425063Y-12425936D02*
X16415539Y-12406888D01*
X16415539Y-12406888D02*
X16415539Y-12349746D01*
X16415539Y-12349746D02*
X16425063Y-12330698D01*
X16425063Y-12330698D02*
X16434587Y-12321174D01*
X16434587Y-12321174D02*
X16453634Y-12311650D01*
X16453634Y-12311650D02*
X16482206Y-12311650D01*
X16482206Y-12311650D02*
X16501253Y-12321174D01*
X16501253Y-12321174D02*
X16510777Y-12330698D01*
X16510777Y-12330698D02*
X16520301Y-12349746D01*
X16520301Y-12349746D02*
X16520301Y-12406888D01*
X16520301Y-12406888D02*
X16510777Y-12425936D01*
X16510777Y-12425936D02*
X16501253Y-12435460D01*
X16501253Y-12435460D02*
X16482206Y-12444984D01*
X16482206Y-12444984D02*
X16453634Y-12444984D01*
X16634587Y-12444984D02*
X16615539Y-12435460D01*
X16615539Y-12435460D02*
X16606015Y-12416412D01*
X16606015Y-12416412D02*
X16606015Y-12244984D01*
X16786968Y-12435460D02*
X16767920Y-12444984D01*
X16767920Y-12444984D02*
X16729825Y-12444984D01*
X16729825Y-12444984D02*
X16710777Y-12435460D01*
X16710777Y-12435460D02*
X16701253Y-12416412D01*
X16701253Y-12416412D02*
X16701253Y-12340222D01*
X16701253Y-12340222D02*
X16710777Y-12321174D01*
X16710777Y-12321174D02*
X16729825Y-12311650D01*
X16729825Y-12311650D02*
X16767920Y-12311650D01*
X16767920Y-12311650D02*
X16786968Y-12321174D01*
X16786968Y-12321174D02*
X16796492Y-12340222D01*
X16796492Y-12340222D02*
X16796492Y-12359269D01*
X16796492Y-12359269D02*
X16701253Y-12378317D01*
X16872682Y-12435460D02*
X16891730Y-12444984D01*
X16891730Y-12444984D02*
X16929825Y-12444984D01*
X16929825Y-12444984D02*
X16948873Y-12435460D01*
X16948873Y-12435460D02*
X16958396Y-12416412D01*
X16958396Y-12416412D02*
X16958396Y-12406888D01*
X16958396Y-12406888D02*
X16948873Y-12387841D01*
X16948873Y-12387841D02*
X16929825Y-12378317D01*
X16929825Y-12378317D02*
X16901253Y-12378317D01*
X16901253Y-12378317D02*
X16882206Y-12368793D01*
X16882206Y-12368793D02*
X16872682Y-12349746D01*
X16872682Y-12349746D02*
X16872682Y-12340222D01*
X16872682Y-12340222D02*
X16882206Y-12321174D01*
X16882206Y-12321174D02*
X16901253Y-12311650D01*
X16901253Y-12311650D02*
X16929825Y-12311650D01*
X16929825Y-12311650D02*
X16948873Y-12321174D01*
X17025063Y-12521174D02*
X17034587Y-12511650D01*
X17034587Y-12511650D02*
X17053634Y-12483079D01*
X17053634Y-12483079D02*
X17063158Y-12464031D01*
X17063158Y-12464031D02*
X17072682Y-12435460D01*
X17072682Y-12435460D02*
X17082206Y-12387841D01*
X17082206Y-12387841D02*
X17082206Y-12349746D01*
X17082206Y-12349746D02*
X17072682Y-12302127D01*
X17072682Y-12302127D02*
X17063158Y-12273555D01*
X17063158Y-12273555D02*
X17053634Y-12254508D01*
X17053634Y-12254508D02*
X17034587Y-12225936D01*
X17034587Y-12225936D02*
X17025063Y-12216412D01*
D12*
X12190000Y-12677500D02*
X12250000Y-12617500D01*
X12190000Y-12557500D01*
X12130000Y-12617500D01*
X12190000Y-12677500D01*
D10*
X12615539Y-12708984D02*
X12501253Y-12708984D01*
X12558396Y-12708984D02*
X12558396Y-12508984D01*
X12558396Y-12508984D02*
X12539348Y-12537555D01*
X12539348Y-12537555D02*
X12520301Y-12556603D01*
X12520301Y-12556603D02*
X12501253Y-12566127D01*
X12701253Y-12689936D02*
X12710777Y-12699460D01*
X12710777Y-12699460D02*
X12701253Y-12708984D01*
X12701253Y-12708984D02*
X12691729Y-12699460D01*
X12691729Y-12699460D02*
X12701253Y-12689936D01*
X12701253Y-12689936D02*
X12701253Y-12708984D01*
X12786967Y-12528031D02*
X12796491Y-12518508D01*
X12796491Y-12518508D02*
X12815539Y-12508984D01*
X12815539Y-12508984D02*
X12863158Y-12508984D01*
X12863158Y-12508984D02*
X12882205Y-12518508D01*
X12882205Y-12518508D02*
X12891729Y-12528031D01*
X12891729Y-12528031D02*
X12901253Y-12547079D01*
X12901253Y-12547079D02*
X12901253Y-12566127D01*
X12901253Y-12566127D02*
X12891729Y-12594698D01*
X12891729Y-12594698D02*
X12777443Y-12708984D01*
X12777443Y-12708984D02*
X12901253Y-12708984D01*
X13025062Y-12508984D02*
X13044110Y-12508984D01*
X13044110Y-12508984D02*
X13063158Y-12518508D01*
X13063158Y-12518508D02*
X13072682Y-12528031D01*
X13072682Y-12528031D02*
X13082205Y-12547079D01*
X13082205Y-12547079D02*
X13091729Y-12585174D01*
X13091729Y-12585174D02*
X13091729Y-12632793D01*
X13091729Y-12632793D02*
X13082205Y-12670888D01*
X13082205Y-12670888D02*
X13072682Y-12689936D01*
X13072682Y-12689936D02*
X13063158Y-12699460D01*
X13063158Y-12699460D02*
X13044110Y-12708984D01*
X13044110Y-12708984D02*
X13025062Y-12708984D01*
X13025062Y-12708984D02*
X13006015Y-12699460D01*
X13006015Y-12699460D02*
X12996491Y-12689936D01*
X12996491Y-12689936D02*
X12986967Y-12670888D01*
X12986967Y-12670888D02*
X12977443Y-12632793D01*
X12977443Y-12632793D02*
X12977443Y-12585174D01*
X12977443Y-12585174D02*
X12986967Y-12547079D01*
X12986967Y-12547079D02*
X12996491Y-12528031D01*
X12996491Y-12528031D02*
X13006015Y-12518508D01*
X13006015Y-12518508D02*
X13025062Y-12508984D01*
X13215539Y-12508984D02*
X13234586Y-12508984D01*
X13234586Y-12508984D02*
X13253634Y-12518508D01*
X13253634Y-12518508D02*
X13263158Y-12528031D01*
X13263158Y-12528031D02*
X13272682Y-12547079D01*
X13272682Y-12547079D02*
X13282205Y-12585174D01*
X13282205Y-12585174D02*
X13282205Y-12632793D01*
X13282205Y-12632793D02*
X13272682Y-12670888D01*
X13272682Y-12670888D02*
X13263158Y-12689936D01*
X13263158Y-12689936D02*
X13253634Y-12699460D01*
X13253634Y-12699460D02*
X13234586Y-12708984D01*
X13234586Y-12708984D02*
X13215539Y-12708984D01*
X13215539Y-12708984D02*
X13196491Y-12699460D01*
X13196491Y-12699460D02*
X13186967Y-12689936D01*
X13186967Y-12689936D02*
X13177443Y-12670888D01*
X13177443Y-12670888D02*
X13167920Y-12632793D01*
X13167920Y-12632793D02*
X13167920Y-12585174D01*
X13167920Y-12585174D02*
X13177443Y-12547079D01*
X13177443Y-12547079D02*
X13186967Y-12528031D01*
X13186967Y-12528031D02*
X13196491Y-12518508D01*
X13196491Y-12518508D02*
X13215539Y-12508984D01*
X13367920Y-12708984D02*
X13367920Y-12575650D01*
X13367920Y-12594698D02*
X13377443Y-12585174D01*
X13377443Y-12585174D02*
X13396491Y-12575650D01*
X13396491Y-12575650D02*
X13425063Y-12575650D01*
X13425063Y-12575650D02*
X13444110Y-12585174D01*
X13444110Y-12585174D02*
X13453634Y-12604222D01*
X13453634Y-12604222D02*
X13453634Y-12708984D01*
X13453634Y-12604222D02*
X13463158Y-12585174D01*
X13463158Y-12585174D02*
X13482205Y-12575650D01*
X13482205Y-12575650D02*
X13510777Y-12575650D01*
X13510777Y-12575650D02*
X13529824Y-12585174D01*
X13529824Y-12585174D02*
X13539348Y-12604222D01*
X13539348Y-12604222D02*
X13539348Y-12708984D01*
X13634586Y-12708984D02*
X13634586Y-12575650D01*
X13634586Y-12594698D02*
X13644110Y-12585174D01*
X13644110Y-12585174D02*
X13663158Y-12575650D01*
X13663158Y-12575650D02*
X13691729Y-12575650D01*
X13691729Y-12575650D02*
X13710777Y-12585174D01*
X13710777Y-12585174D02*
X13720301Y-12604222D01*
X13720301Y-12604222D02*
X13720301Y-12708984D01*
X13720301Y-12604222D02*
X13729824Y-12585174D01*
X13729824Y-12585174D02*
X13748872Y-12575650D01*
X13748872Y-12575650D02*
X13777443Y-12575650D01*
X13777443Y-12575650D02*
X13796491Y-12585174D01*
X13796491Y-12585174D02*
X13806015Y-12604222D01*
X13806015Y-12604222D02*
X13806015Y-12708984D01*
X14196491Y-12499460D02*
X14025063Y-12756603D01*
X14453634Y-12508984D02*
X14472682Y-12508984D01*
X14472682Y-12508984D02*
X14491729Y-12518508D01*
X14491729Y-12518508D02*
X14501253Y-12528031D01*
X14501253Y-12528031D02*
X14510777Y-12547079D01*
X14510777Y-12547079D02*
X14520301Y-12585174D01*
X14520301Y-12585174D02*
X14520301Y-12632793D01*
X14520301Y-12632793D02*
X14510777Y-12670888D01*
X14510777Y-12670888D02*
X14501253Y-12689936D01*
X14501253Y-12689936D02*
X14491729Y-12699460D01*
X14491729Y-12699460D02*
X14472682Y-12708984D01*
X14472682Y-12708984D02*
X14453634Y-12708984D01*
X14453634Y-12708984D02*
X14434586Y-12699460D01*
X14434586Y-12699460D02*
X14425063Y-12689936D01*
X14425063Y-12689936D02*
X14415539Y-12670888D01*
X14415539Y-12670888D02*
X14406015Y-12632793D01*
X14406015Y-12632793D02*
X14406015Y-12585174D01*
X14406015Y-12585174D02*
X14415539Y-12547079D01*
X14415539Y-12547079D02*
X14425063Y-12528031D01*
X14425063Y-12528031D02*
X14434586Y-12518508D01*
X14434586Y-12518508D02*
X14453634Y-12508984D01*
X14606015Y-12689936D02*
X14615539Y-12699460D01*
X14615539Y-12699460D02*
X14606015Y-12708984D01*
X14606015Y-12708984D02*
X14596491Y-12699460D01*
X14596491Y-12699460D02*
X14606015Y-12689936D01*
X14606015Y-12689936D02*
X14606015Y-12708984D01*
X14739348Y-12508984D02*
X14758396Y-12508984D01*
X14758396Y-12508984D02*
X14777444Y-12518508D01*
X14777444Y-12518508D02*
X14786967Y-12528031D01*
X14786967Y-12528031D02*
X14796491Y-12547079D01*
X14796491Y-12547079D02*
X14806015Y-12585174D01*
X14806015Y-12585174D02*
X14806015Y-12632793D01*
X14806015Y-12632793D02*
X14796491Y-12670888D01*
X14796491Y-12670888D02*
X14786967Y-12689936D01*
X14786967Y-12689936D02*
X14777444Y-12699460D01*
X14777444Y-12699460D02*
X14758396Y-12708984D01*
X14758396Y-12708984D02*
X14739348Y-12708984D01*
X14739348Y-12708984D02*
X14720301Y-12699460D01*
X14720301Y-12699460D02*
X14710777Y-12689936D01*
X14710777Y-12689936D02*
X14701253Y-12670888D01*
X14701253Y-12670888D02*
X14691729Y-12632793D01*
X14691729Y-12632793D02*
X14691729Y-12585174D01*
X14691729Y-12585174D02*
X14701253Y-12547079D01*
X14701253Y-12547079D02*
X14710777Y-12528031D01*
X14710777Y-12528031D02*
X14720301Y-12518508D01*
X14720301Y-12518508D02*
X14739348Y-12508984D01*
X14977444Y-12575650D02*
X14977444Y-12708984D01*
X14929825Y-12499460D02*
X14882206Y-12642317D01*
X14882206Y-12642317D02*
X15006015Y-12642317D01*
X15063158Y-12508984D02*
X15196491Y-12508984D01*
X15196491Y-12508984D02*
X15110777Y-12708984D01*
X15263158Y-12528031D02*
X15272682Y-12518508D01*
X15272682Y-12518508D02*
X15291729Y-12508984D01*
X15291729Y-12508984D02*
X15339348Y-12508984D01*
X15339348Y-12508984D02*
X15358396Y-12518508D01*
X15358396Y-12518508D02*
X15367920Y-12528031D01*
X15367920Y-12528031D02*
X15377444Y-12547079D01*
X15377444Y-12547079D02*
X15377444Y-12566127D01*
X15377444Y-12566127D02*
X15367920Y-12594698D01*
X15367920Y-12594698D02*
X15253634Y-12708984D01*
X15253634Y-12708984D02*
X15377444Y-12708984D01*
X15453634Y-12508984D02*
X15453634Y-12547079D01*
X15529825Y-12508984D02*
X15529825Y-12547079D01*
X15825063Y-12785174D02*
X15815539Y-12775650D01*
X15815539Y-12775650D02*
X15796491Y-12747079D01*
X15796491Y-12747079D02*
X15786968Y-12728031D01*
X15786968Y-12728031D02*
X15777444Y-12699460D01*
X15777444Y-12699460D02*
X15767920Y-12651841D01*
X15767920Y-12651841D02*
X15767920Y-12613746D01*
X15767920Y-12613746D02*
X15777444Y-12566127D01*
X15777444Y-12566127D02*
X15786968Y-12537555D01*
X15786968Y-12537555D02*
X15796491Y-12518508D01*
X15796491Y-12518508D02*
X15815539Y-12489936D01*
X15815539Y-12489936D02*
X15825063Y-12480412D01*
X15882206Y-12508984D02*
X16006015Y-12508984D01*
X16006015Y-12508984D02*
X15939348Y-12585174D01*
X15939348Y-12585174D02*
X15967920Y-12585174D01*
X15967920Y-12585174D02*
X15986968Y-12594698D01*
X15986968Y-12594698D02*
X15996491Y-12604222D01*
X15996491Y-12604222D02*
X16006015Y-12623269D01*
X16006015Y-12623269D02*
X16006015Y-12670888D01*
X16006015Y-12670888D02*
X15996491Y-12689936D01*
X15996491Y-12689936D02*
X15986968Y-12699460D01*
X15986968Y-12699460D02*
X15967920Y-12708984D01*
X15967920Y-12708984D02*
X15910777Y-12708984D01*
X15910777Y-12708984D02*
X15891729Y-12699460D01*
X15891729Y-12699460D02*
X15882206Y-12689936D01*
X16244110Y-12708984D02*
X16244110Y-12508984D01*
X16329825Y-12708984D02*
X16329825Y-12604222D01*
X16329825Y-12604222D02*
X16320301Y-12585174D01*
X16320301Y-12585174D02*
X16301253Y-12575650D01*
X16301253Y-12575650D02*
X16272682Y-12575650D01*
X16272682Y-12575650D02*
X16253634Y-12585174D01*
X16253634Y-12585174D02*
X16244110Y-12594698D01*
X16453634Y-12708984D02*
X16434587Y-12699460D01*
X16434587Y-12699460D02*
X16425063Y-12689936D01*
X16425063Y-12689936D02*
X16415539Y-12670888D01*
X16415539Y-12670888D02*
X16415539Y-12613746D01*
X16415539Y-12613746D02*
X16425063Y-12594698D01*
X16425063Y-12594698D02*
X16434587Y-12585174D01*
X16434587Y-12585174D02*
X16453634Y-12575650D01*
X16453634Y-12575650D02*
X16482206Y-12575650D01*
X16482206Y-12575650D02*
X16501253Y-12585174D01*
X16501253Y-12585174D02*
X16510777Y-12594698D01*
X16510777Y-12594698D02*
X16520301Y-12613746D01*
X16520301Y-12613746D02*
X16520301Y-12670888D01*
X16520301Y-12670888D02*
X16510777Y-12689936D01*
X16510777Y-12689936D02*
X16501253Y-12699460D01*
X16501253Y-12699460D02*
X16482206Y-12708984D01*
X16482206Y-12708984D02*
X16453634Y-12708984D01*
X16634587Y-12708984D02*
X16615539Y-12699460D01*
X16615539Y-12699460D02*
X16606015Y-12680412D01*
X16606015Y-12680412D02*
X16606015Y-12508984D01*
X16786968Y-12699460D02*
X16767920Y-12708984D01*
X16767920Y-12708984D02*
X16729825Y-12708984D01*
X16729825Y-12708984D02*
X16710777Y-12699460D01*
X16710777Y-12699460D02*
X16701253Y-12680412D01*
X16701253Y-12680412D02*
X16701253Y-12604222D01*
X16701253Y-12604222D02*
X16710777Y-12585174D01*
X16710777Y-12585174D02*
X16729825Y-12575650D01*
X16729825Y-12575650D02*
X16767920Y-12575650D01*
X16767920Y-12575650D02*
X16786968Y-12585174D01*
X16786968Y-12585174D02*
X16796492Y-12604222D01*
X16796492Y-12604222D02*
X16796492Y-12623269D01*
X16796492Y-12623269D02*
X16701253Y-12642317D01*
X16872682Y-12699460D02*
X16891730Y-12708984D01*
X16891730Y-12708984D02*
X16929825Y-12708984D01*
X16929825Y-12708984D02*
X16948873Y-12699460D01*
X16948873Y-12699460D02*
X16958396Y-12680412D01*
X16958396Y-12680412D02*
X16958396Y-12670888D01*
X16958396Y-12670888D02*
X16948873Y-12651841D01*
X16948873Y-12651841D02*
X16929825Y-12642317D01*
X16929825Y-12642317D02*
X16901253Y-12642317D01*
X16901253Y-12642317D02*
X16882206Y-12632793D01*
X16882206Y-12632793D02*
X16872682Y-12613746D01*
X16872682Y-12613746D02*
X16872682Y-12604222D01*
X16872682Y-12604222D02*
X16882206Y-12585174D01*
X16882206Y-12585174D02*
X16901253Y-12575650D01*
X16901253Y-12575650D02*
X16929825Y-12575650D01*
X16929825Y-12575650D02*
X16948873Y-12585174D01*
X17025063Y-12785174D02*
X17034587Y-12775650D01*
X17034587Y-12775650D02*
X17053634Y-12747079D01*
X17053634Y-12747079D02*
X17063158Y-12728031D01*
X17063158Y-12728031D02*
X17072682Y-12699460D01*
X17072682Y-12699460D02*
X17082206Y-12651841D01*
X17082206Y-12651841D02*
X17082206Y-12613746D01*
X17082206Y-12613746D02*
X17072682Y-12566127D01*
X17072682Y-12566127D02*
X17063158Y-12537555D01*
X17063158Y-12537555D02*
X17053634Y-12518508D01*
X17053634Y-12518508D02*
X17034587Y-12489936D01*
X17034587Y-12489936D02*
X17025063Y-12480412D01*
M02*
