%TF.GenerationSoftware,KiCad,Pcbnew,9.0.6*%
%TF.CreationDate,2026-01-06T18:42:53+05:30*%
%TF.ProjectId,Servo Motor Tester,53657276-6f20-44d6-9f74-6f7220546573,rev?*%
%TF.SameCoordinates,Original*%
%TF.FileFunction,Drillmap*%
%TF.FilePolarity,Positive*%
%FSLAX45Y45*%
G04 Gerber Fmt 4.5, Leading zero omitted, Abs format (unit mm)*
G04 Created by KiCad (PCBNEW 9.0.6) date 2026-01-06 18:42:53*
%MOMM*%
%LPD*%
G01*
G04 APERTURE LIST*
%ADD10C,0.200000*%
G04 APERTURE END LIST*
D10*
X12260000Y-8028500D02*
X14621839Y-8028500D01*
X14621839Y-10911500D01*
X12260000Y-10911500D01*
X12260000Y-8028500D01*
X12510777Y-11232984D02*
X12510777Y-11032984D01*
X12510777Y-11032984D02*
X12558396Y-11032984D01*
X12558396Y-11032984D02*
X12586967Y-11042508D01*
X12586967Y-11042508D02*
X12606015Y-11061555D01*
X12606015Y-11061555D02*
X12615539Y-11080603D01*
X12615539Y-11080603D02*
X12625062Y-11118698D01*
X12625062Y-11118698D02*
X12625062Y-11147270D01*
X12625062Y-11147270D02*
X12615539Y-11185365D01*
X12615539Y-11185365D02*
X12606015Y-11204412D01*
X12606015Y-11204412D02*
X12586967Y-11223460D01*
X12586967Y-11223460D02*
X12558396Y-11232984D01*
X12558396Y-11232984D02*
X12510777Y-11232984D01*
X12710777Y-11232984D02*
X12710777Y-11099650D01*
X12710777Y-11137746D02*
X12720301Y-11118698D01*
X12720301Y-11118698D02*
X12729824Y-11109174D01*
X12729824Y-11109174D02*
X12748872Y-11099650D01*
X12748872Y-11099650D02*
X12767920Y-11099650D01*
X12834586Y-11232984D02*
X12834586Y-11099650D01*
X12834586Y-11032984D02*
X12825062Y-11042508D01*
X12825062Y-11042508D02*
X12834586Y-11052031D01*
X12834586Y-11052031D02*
X12844110Y-11042508D01*
X12844110Y-11042508D02*
X12834586Y-11032984D01*
X12834586Y-11032984D02*
X12834586Y-11052031D01*
X12958396Y-11232984D02*
X12939348Y-11223460D01*
X12939348Y-11223460D02*
X12929824Y-11204412D01*
X12929824Y-11204412D02*
X12929824Y-11032984D01*
X13063158Y-11232984D02*
X13044110Y-11223460D01*
X13044110Y-11223460D02*
X13034586Y-11204412D01*
X13034586Y-11204412D02*
X13034586Y-11032984D01*
X13291729Y-11232984D02*
X13291729Y-11032984D01*
X13291729Y-11032984D02*
X13358396Y-11175841D01*
X13358396Y-11175841D02*
X13425062Y-11032984D01*
X13425062Y-11032984D02*
X13425062Y-11232984D01*
X13606015Y-11232984D02*
X13606015Y-11128222D01*
X13606015Y-11128222D02*
X13596491Y-11109174D01*
X13596491Y-11109174D02*
X13577443Y-11099650D01*
X13577443Y-11099650D02*
X13539348Y-11099650D01*
X13539348Y-11099650D02*
X13520301Y-11109174D01*
X13606015Y-11223460D02*
X13586967Y-11232984D01*
X13586967Y-11232984D02*
X13539348Y-11232984D01*
X13539348Y-11232984D02*
X13520301Y-11223460D01*
X13520301Y-11223460D02*
X13510777Y-11204412D01*
X13510777Y-11204412D02*
X13510777Y-11185365D01*
X13510777Y-11185365D02*
X13520301Y-11166317D01*
X13520301Y-11166317D02*
X13539348Y-11156793D01*
X13539348Y-11156793D02*
X13586967Y-11156793D01*
X13586967Y-11156793D02*
X13606015Y-11147270D01*
X13701253Y-11099650D02*
X13701253Y-11299650D01*
X13701253Y-11109174D02*
X13720301Y-11099650D01*
X13720301Y-11099650D02*
X13758396Y-11099650D01*
X13758396Y-11099650D02*
X13777443Y-11109174D01*
X13777443Y-11109174D02*
X13786967Y-11118698D01*
X13786967Y-11118698D02*
X13796491Y-11137746D01*
X13796491Y-11137746D02*
X13796491Y-11194888D01*
X13796491Y-11194888D02*
X13786967Y-11213936D01*
X13786967Y-11213936D02*
X13777443Y-11223460D01*
X13777443Y-11223460D02*
X13758396Y-11232984D01*
X13758396Y-11232984D02*
X13720301Y-11232984D01*
X13720301Y-11232984D02*
X13701253Y-11223460D01*
X13882205Y-11213936D02*
X13891729Y-11223460D01*
X13891729Y-11223460D02*
X13882205Y-11232984D01*
X13882205Y-11232984D02*
X13872682Y-11223460D01*
X13872682Y-11223460D02*
X13882205Y-11213936D01*
X13882205Y-11213936D02*
X13882205Y-11232984D01*
X13882205Y-11109174D02*
X13891729Y-11118698D01*
X13891729Y-11118698D02*
X13882205Y-11128222D01*
X13882205Y-11128222D02*
X13872682Y-11118698D01*
X13872682Y-11118698D02*
X13882205Y-11109174D01*
X13882205Y-11109174D02*
X13882205Y-11128222D01*
M02*
